<?xml version="1.0" encoding="UTF-8"?>
<svg width="87px" height="72px" viewBox="0 0 87 72" version="1.1" xmlns="http://www.w3.org/2000/svg" xmlns:xlink="http://www.w3.org/1999/xlink">
    <!-- Generator: Sketch 60.1 (88133) - https://sketch.com -->
    <title>logo / Bens</title>
    <desc>Created with Sketch.</desc>
    <g id="Supplier" stroke="none" stroke-width="1" fill="none" fill-rule="evenodd" opacity="0.5">
        <g id="Supplier_1280" transform="translate(-597.000000, -1399.000000)" fill="#000000">
            <g id="Testimonails-bg-" transform="translate(148.000000, 1283.000000)">
                <g id="Image-/-logo-bottom-/-Bens-Cookies" transform="translate(423.000000, 108.000000)">
                    <g id="Ben's_Cookies_Logo_RED_ai" transform="translate(26.000000, 8.000000)">
                        <path d="M64.6005552,26.0060683 C64.6883631,26.2477434 64.7876434,26.5116013 64.7505788,26.7758483 L64.7999983,26.7758483 C64.5754042,28.2698754 63.678793,29.7319904 62.1083997,30.5671512 C61.9217528,30.6772865 61.7717293,30.4686909 61.6097921,30.5457468 C61.3481334,30.4025319 61.0860335,30.0950869 61.2726804,29.8090463 C61.7218685,29.435053 62.5571466,29.5230057 62.7062876,28.8528534 C62.9683875,28.4566774 63.2675521,28.0721766 63.4912636,27.6658821 C63.504501,27.5884371 63.4043382,27.533564 63.3416814,27.5117705 C62.9180855,27.5557468 62.6317171,27.7094693 62.2575408,27.8748669 C61.9336664,27.9733271 61.6848039,27.8631918 61.422704,27.6989617 C61.0613238,27.4786909 61.2484119,27.105476 61.2484119,26.8190463 C61.3481334,26.5773711 61.3856393,26.3026165 61.6596529,26.1162036 C61.8586547,25.8079803 61.9455801,25.32463 62.4441877,25.2693677 C63.254756,25.0712798 64.1769594,25.2915505 64.6005552,26.0060683" id="Fill-1"></path>
                        <path d="M53.5397553,30.1130264 C53.4445422,30.5487964 53.7528314,31.0077155 53.3975648,31.3748508 C53.1131839,32.4072156 52.5087694,33.3823171 52.2600409,34.4601678 C52.1891553,34.8504521 52.0830368,35.2289588 51.9169381,35.5847226 L51.9760793,35.6419859 C51.8695413,35.6419859 51.8695413,35.7451412 51.8104001,35.8141821 C51.8104001,35.860074 51.7869114,35.9169313 51.8343082,35.9518578 C52.237391,35.6988432 52.3787427,35.2058098 52.5448413,34.8504521 C52.5213526,34.5519516 52.7939893,34.3570125 52.6870318,34.0706958 L52.746173,33.7721953 C53.9428381,32.1777561 55.7195902,30.9390807 57.3193382,29.8949383 C57.7102572,29.8498586 58.0655237,30.0553569 58.4321151,30.1706959 C58.9186667,30.4570126 59.3683075,30.8241479 59.6535273,31.2944384 C60.0087939,31.5011551 59.9605581,31.9369251 60.2805916,32.1436418 C60.3640604,32.3840666 60.1505649,32.5562628 60.1618898,32.8088714 C59.901417,35.1599178 58.8242925,37.1905332 57.5802305,39.1403301 L57.5802305,39.2548568 C57.2010558,39.6565125 56.8923472,40.149546 56.5605694,40.5974997 C56.2879328,40.7002488 55.9565744,40.7924388 55.8974332,41.090127 C55.3643237,41.3654784 54.5468332,41.3545131 53.9428381,41.1473904 C53.6467128,40.9183369 53.1249282,40.6433916 53.1970721,40.1609174 C53.3384237,39.5302083 53.7889033,38.7849724 53.3736567,38.1766001 C53.6349685,37.5690399 54.381154,37.7526076 54.9025191,37.6035604 C55.6721934,38.3378309 55.0438708,39.403904 54.9377522,40.2417359 C55.3056019,40.2994054 55.6721934,40.1609174 55.9326662,39.9432354 C56.3474934,39.3588243 56.6318744,38.7159315 57.1532395,38.1997491 C57.3071744,37.9706957 57.1654033,37.6035604 57.4967617,37.4654785 C57.5559029,36.7088713 57.9233332,36.0087151 58.0055437,35.2289588 C58.1720617,34.2766002 58.4799314,33.2673843 58.5151645,32.2581685 C58.4446984,32.0973437 58.4564427,31.8906271 58.2907635,31.7643228 C58.3373215,31.5929389 58.1477342,31.5588245 58.0894319,31.454857 C57.9946382,31.3517018 57.8402839,31.306216 57.697674,31.2367689 C57.6863491,31.1108708 57.6037192,31.042236 57.4967617,31.0186808 C57.3776405,31.0994993 57.2832663,31.2367689 57.1297508,31.2944384 C57.0945178,31.7302085 56.5605694,31.5697899 56.3600766,31.7643228 C56.2409554,31.8106208 56.1935585,31.8451413 56.0752762,31.7878779 C55.8143839,31.695688 55.7430789,32.0632294 55.6130522,32.0973437 C54.7481649,32.7974999 54.2507078,33.7608238 53.5758273,34.5982496 C52.7340092,35.9632293 52.034801,37.4431418 51.4077368,38.8422358 L51.4429698,38.8653848 C51.1585888,38.8877216 51.3003599,39.2321139 51.0998671,39.3588243 C50.7441811,39.9432354 50.4832888,40.5743507 50.044973,41.1250536 C49.9627625,40.9528574 49.7375227,40.8155878 49.5353521,40.872445 L48.7891666,41.3999989 C48.6234874,41.330958 48.6587205,41.1250536 48.5999987,40.9869717 C49.6657983,38.4178372 50.1989078,35.6419859 51.4429698,33.1414862 C51.5851603,32.7853162 51.7390951,32.487628 51.9169381,32.1436418 C51.9882431,31.8906271 51.928263,31.6502022 51.9525906,31.4093712 C51.7277702,31.2599179 51.7277702,31.5243041 51.5851603,31.6270532 L51.5495078,31.5929389 C51.039887,31.9710395 50.8033223,32.5562628 50.2467241,32.8888776 C50.0923698,32.8198367 49.9740874,33.0151819 49.8197331,33.0265533 C49.7375227,32.96929 49.5596797,33.1069657 49.4996997,32.9465471 C49.6305652,31.9369251 50.3889146,31.1912831 50.9576766,30.3542635 C51.3838286,30.1593244 51.8221445,29.9867221 52.237391,29.7576687 C52.3787427,29.8145259 52.6165657,29.7576687 52.7696617,29.6999992 C53.0418789,29.7921892 53.5519191,29.6886278 53.5397553,30.1130264" id="Fill-3"></path>
                        <path d="M44.0551689,31.1971733 C44.4493549,30.9231261 44.6025243,30.3986783 45.0980725,30.2310408 C45.3143117,30.1237866 45.5566798,29.944748 45.7985974,29.8615627 C45.9251874,29.9215237 46.0779063,29.8615627 46.1923329,29.8020239 C46.447315,29.7661317 46.701396,29.8615627 46.9554771,29.8860538 C47.2109096,30.5886956 46.5869694,31.1612811 46.1923329,31.7224656 C45.1237509,32.3064522 44.0551689,32.890861 42.8717098,33.2012226 C43.2149895,32.5804994 43.5965616,31.8411209 44.0551689,31.1971733 M43.5078134,33.8688168 C44.5128752,33.6543083 45.505323,33.4752698 46.5995834,33.3439467 C47.4145348,32.7717835 48.0628019,31.9133274 48.4322106,31.0899191 C48.5597016,30.6963721 48.6867421,30.1596787 48.5209587,29.8020239 C48.037574,29.2057918 47.2487515,28.9667922 46.5617415,28.7999992 C45.7472406,28.919499 45.0345522,29.6234076 44.1569815,29.253085 C43.7492805,29.551201 43.2532819,29.873386 42.9861364,30.2551096 C42.93523,30.3387173 42.8590958,30.4577948 42.7189909,30.4577948 C41.344971,31.9365518 40.3777511,33.5707007 39.7794893,35.3475738 C39.8051677,36.69543 39.321783,37.8165321 39.8430096,39.0689574 C40.3777511,40.0705598 41.6242799,40.4522835 42.6297922,40.4999989 C43.2663463,40.344607 43.9659702,40.2973138 44.4871968,39.8796979 C44.9327396,39.6888361 45.3399901,39.4384355 45.772919,39.2116815 C46.30721,38.2814412 47.1469388,37.5543082 47.4145348,36.5282147 C47.4014704,36.301883 47.6046451,36.0155902 47.363178,35.8365517 C46.9554771,35.8365517 46.6635541,36.0274135 46.447315,36.3259518 C46.3198239,36.3137063 46.154491,36.4213828 46.2567542,36.5522836 C45.8490532,37.2566144 45.3913469,37.911963 44.7669562,38.472303 C44.0551689,38.9975953 43.0748845,39.4620821 42.1973138,39.1044273 C41.9427822,38.9253887 41.5742746,38.7826646 41.5607597,38.4486564 C41.4084912,37.5661315 41.331456,36.5641069 41.5868886,35.6338665 C41.7522215,34.7749883 42.6045643,34.036032 43.5078134,33.8688168" id="Fill-5"></path>
                        <path d="M66.8632903,29.8721448 C67.6588182,29.6846596 68.378019,30.1649868 69.0831357,30.4346006 C70.3148183,31.0086704 70.2116859,32.3563244 70.1871522,33.4455639 C69.9813417,33.6094061 69.7759856,33.8790198 69.4811269,33.890634 C68.9286643,33.7504348 68.5433944,33.1991784 68.4284494,32.7076518 C68.4802428,32.3563244 68.3130502,31.9689102 68.4670673,31.6175827 C68.2876078,31.3599979 68.7873684,31.0202846 68.3130502,30.8800854 C68.1463119,31.0086704 68.0054703,30.7975421 67.9414101,30.7162432 C67.7614963,30.657343 67.5175223,30.7274426 67.4148442,30.5747997 C67.2481059,30.6336999 67.1327066,30.5636004 66.9782352,30.6926002 C66.9659683,30.6336999 66.9019081,30.5872434 66.8246724,30.5984428 C66.7733334,30.6220858 66.8114969,30.680986 66.7987757,30.7162432 L66.7351698,30.657343 C66.4780203,30.7747287 66.0800292,30.8676417 66.0550412,31.1961557 C65.9005697,31.2898983 65.8110672,31.5006118 65.7211103,31.6764829 C65.6184322,31.8988106 65.6184322,32.1688391 65.5416508,32.4027809 C65.5802687,32.4965235 65.5802687,32.54298 65.5666388,32.6603657 C65.8110672,33.4219208 66.2476761,34.1133764 66.4266813,34.9097739 L66.6193163,35.0736161 L66.555256,35.1325163 C67.0173074,36.1163991 67.8260108,36.9136262 67.9414101,38.0265088 C68.0690762,38.6818776 67.697436,39.2916194 67.2608271,39.7955897 C66.8369393,40.1697307 66.3880634,40.6504727 65.849685,40.9196716 C65.65705,41.0607004 65.4003549,41.0718997 65.2336166,41.2597998 C65.0791451,41.2950569 64.90014,41.1772565 64.7715652,41.3419283 C64.5530336,41.3182852 64.3226894,41.2481856 64.1809391,41.3999989 C64.0909822,41.2249574 63.9119771,41.3887996 63.7834023,41.2597998 C63.321351,41.1660571 62.8211361,40.9321154 62.4617629,40.6156303 C62.3077457,40.6504727 62.2823034,40.4866305 62.205522,40.4161161 C61.5376602,39.947403 61.1269479,39.4791047 60.4599947,39.0103916 C60.7802958,38.4479358 60.0492824,37.9680233 60.3954802,37.4051528 C60.6907932,37.171211 61.0115486,37.147568 61.4099941,37.2064682 L62.1151108,37.9680233 C61.6921316,38.740363 62.5512654,39.2443333 62.9238142,39.8304321 C63.1546127,39.7603326 63.4244834,39.7955897 63.5912217,39.9706313 C63.7706812,40.1933737 63.809299,40.4866305 64.0909822,40.6384438 C64.6684328,40.6857299 65.1173087,40.2170168 65.5925355,40.0179174 C66.2731185,39.654561 66.1827073,39.0456487 66.1827073,38.3894504 L66.1186471,38.3305501 L66.208604,38.2840936 C66.093659,37.8622518 66.3880634,37.3703104 65.874673,37.1239249 C64.9637459,36.2810709 64.3740284,35.3079727 63.9369651,34.2892475 C63.7452388,33.4687922 63.7452388,32.414395 64.0528187,31.5827403 C64.8101831,31.0323135 64.9637459,29.1222038 66.3371787,29.8721448 C66.4780203,29.9775016 66.7092732,29.9186013 66.8632903,29.8721448" id="Fill-7"></path>
                        <path d="M35.1383613,36.6404218 C35.0417744,36.9113941 35.0661348,37.2781266 35.1024617,37.5733525 C34.5344791,38.2348927 33.8827308,38.3879418 33.2190159,38.9081416 L33.1946555,38.8725974 C32.5672675,39.4630493 31.5894313,39.2502022 30.877423,39.4981753 C29.8995868,39.7821107 28.789264,39.9000338 27.7507405,39.8406541 C27.8716879,38.3055629 28.9820106,37.0656977 29.079025,35.5301884 C29.6585468,34.5495867 30.0684003,33.4518983 30.2974738,32.3529554 C30.9013561,31.9155526 31.6620853,32.3174112 32.3860601,32.0694381 C32.8446345,31.9870592 33.2070494,32.3174112 33.6532299,32.3529554 C33.8468312,32.5415487 34.3413052,32.6247639 34.2327517,32.9551159 C34.5832,33.2152158 35.0896405,33.0964563 35.3678622,33.5221503 C35.9349901,34.5382962 35.1746883,35.6125673 35.1383613,36.6404218 M32.1202323,25.632175 C32.2416071,25.2779875 32.3253728,24.9238 32.6394941,24.7347885 C33.0737081,24.6285741 33.5207433,24.5579039 33.9793177,24.7347885 C34.2934391,24.7703327 34.6067056,24.8414211 34.8729609,25.0183058 C35.0417744,25.05385 35.1746883,25.1956086 35.3315353,25.2424433 C35.4281222,25.3724932 35.6811288,25.466999 35.7418162,25.6681373 C36.0555101,25.7505162 36.224751,26.0695777 36.441858,26.3175507 C36.5145119,27.0853054 36.224751,27.7468456 35.9106297,28.3845503 C35.7174558,28.7504464 35.6089023,29.1640136 35.4516279,29.5533271 C33.9793177,30.1441971 32.4104206,31.2310132 30.7325425,30.6878143 C30.8889621,28.8800782 31.3475366,27.1911016 32.1202323,25.632175 M36.4059584,32.9199898 C36.1768849,32.6715986 35.7777158,32.7071428 35.6212962,32.3880814 C35.1990487,32.1873612 34.7883404,31.9632237 34.3541264,31.8210469 C34.1724917,31.573492 33.7985377,31.7265412 33.6532299,31.4438602 C33.8220434,31.3610632 33.9549573,31.195469 34.1724917,31.2193046 C34.2571121,30.982622 34.486613,31.2193046 34.5225126,30.995167 C35.6691623,30.8642807 36.6230654,30.4038789 37.4560212,29.5771627 L37.4560212,29.4947837 C38.1440965,28.9156224 38.7236183,28.2189562 38.6992578,27.3688226 C38.5180504,26.4714362 38.3009434,25.5502142 37.7692877,24.8180038 C37.5038873,24.6402828 37.2384868,24.3450569 36.9008598,24.3095127 C35.7542101,24.3095127 34.860567,23.884655 33.7382777,23.6835166 C33.0984959,23.4593791 32.3138336,23.3999994 31.6620853,23.3999994 C31.4928444,23.5421762 31.21505,23.4476704 31.0462365,23.6011377 C30.3338008,23.6011377 29.5256328,23.7424782 28.9102114,24.1322098 C28.4875366,24.4044366 28.0405014,24.6047386 27.6062874,24.8414211 C27.2801995,24.8765471 27.0139443,25.1834817 26.7006777,25.0655586 C26.4472438,25.2424433 26.1211559,25.1604825 25.831395,25.1011028 C25.2159736,25.679846 24.5637979,26.0695777 23.9483765,26.6010679 C23.5257017,26.7662439 23.4534752,27.3211516 23.3449217,27.6523398 C23.4299695,27.7347187 23.1637143,27.8175158 23.3449217,27.9007311 C23.4299695,28.183412 23.7188756,28.4200945 23.9483765,28.609106 C24.1539444,28.5384358 24.3471183,28.774282 24.5278983,28.5852705 C25.1796467,27.9944005 25.9164428,27.2856074 26.4716042,26.6604477 C26.8694912,26.4120564 27.0383047,25.8805662 27.5703878,25.892693 C27.8960483,25.7977691 28.2580357,25.5263787 28.5593358,25.349494 C29.1751845,25.088976 29.814539,24.6524096 30.503469,24.6992443 C30.4427816,24.9359269 30.2137081,25.088976 30.0927607,25.301823 C29.9718133,25.679846 29.7427398,26.0101979 29.5734989,26.3769304 C28.4875366,29.3881512 28.1973483,32.8493196 27.2558391,35.9788816 C27.0139443,36.7110921 26.8216251,37.4788467 26.4109168,38.1044246 C26.1814159,38.7659648 25.8801159,39.4036695 25.3728206,39.9472867 C24.8300531,40.2065502 24.3107914,39.970704 23.779563,39.8406541 C23.3692821,39.7934012 22.8739534,39.5458463 22.4999994,39.8406541 C22.5478655,40.3491452 22.9342134,40.8091289 23.4056091,41.0575201 C23.562456,41.1051912 23.7432361,41.0219759 23.8885439,41.1754432 C25.0954536,41.2578221 26.4596377,40.8797991 27.7751009,41.0575201 C28.1375157,41.2109874 28.4875366,41.3999994 28.9102114,41.3999994 C29.5012724,41.352746 29.9961738,41.0688106 30.5269747,40.891926 C30.9620434,40.5143211 31.6620853,40.3955617 32.1445927,40.5732827 C32.6997541,40.3366002 33.3275694,40.2659299 33.9186303,40.1245895 C35.2225544,39.6633513 36.441858,38.7898003 37.3594342,37.6791487 C37.9509225,36.7817623 38.4697569,35.6008586 37.8539082,34.5612954 C37.4073003,34.0063878 37.0812125,33.321012 36.4059584,32.9199898" id="Fill-9"></path>
                        <path d="M64.4111983,35.5606623 L64.4111983,35.6074623 C64.3049983,35.6533623 64.3346983,35.5309623 64.2887983,35.4850623 C64.3508983,35.4688623 64.3652983,35.5309623 64.4111983,35.5606623" id="Fill-11"></path>
                        <path d="M35.9300923,42.4673312 C36.869462,43.0693064 37.7966266,43.6729572 38.5339812,44.5489001 C39.1038318,45.8973748 38.0815518,47.0108403 37.3568231,48.0392669 C37.1194555,48.2638032 36.9292248,47.8616486 36.7032205,47.7791232 C35.7520666,46.607429 36.9759407,44.9862433 35.76343,43.9804379 C35.3000581,43.862305 34.9793594,43.2477625 34.4566456,43.4605693 C34.1473102,43.5787022 33.7428594,43.5665538 33.5408444,43.8036574 C32.8039106,43.9222092 32.2925602,44.5489001 31.7938357,45.1169435 C31.128028,46.0758309 30.7004296,47.1398649 30.2841946,48.2051557 C30.4024575,48.5712839 30.1057481,48.9152099 29.9395066,49.2335823 C28.6318805,50.0864851 29.4281562,51.8249659 28.5123549,52.8667977 C29.2139361,55.1272417 27.0027138,58.7357413 30.0817588,59.8827198 C31.7816306,60.2974417 33.2201456,59.2208403 34.3375409,58.0604567 C34.9911436,57.0793671 35.5260624,56.0371164 36.2516329,55.0794858 C36.4410219,55.0438784 36.5959,55.1272417 36.7385731,55.2210777 C36.7150047,55.3400485 36.7503573,55.4225739 36.8214834,55.5059372 C36.5247739,57.8828385 34.6940132,60.3204818 32.2572076,60.9593211 C31.544263,61.0192254 30.8780345,61.3024093 30.1171114,61.1608173 C28.9639426,61.0544139 27.8351839,60.3925345 27.1458078,59.3976208 C26.825109,58.817429 26.5039894,58.2263455 26.4328633,57.5518987 C26.2897693,57.4459142 26.5153527,57.268296 26.3255428,57.1857705 C26.2539958,56.5817008 26.2300066,55.9311319 26.1235278,55.2797253 C26.26578,54.7485461 25.9446604,54.1683543 26.206859,53.6602152 C26.1828697,52.7838533 26.5751155,52.0034221 26.5511262,51.1630865 L26.6588675,51.104439 C27.28806,48.4652994 28.5009916,46.0284939 30.4862096,44.0051536 C30.4504361,43.8388459 30.5333464,43.9222092 30.6284618,43.862305 C30.78334,43.4836094 31.2824853,43.5665538 31.5084895,43.353747 C31.8169833,43.4957578 32.007214,43.1526697 32.2572076,43.1769665 C33.4103764,42.7735552 34.5988978,41.945787 35.9300923,42.4673312" id="Fill-13"></path>
                        <path d="M71.0504104,45.586884 C71.3331359,46.8339499 70.3388371,47.5835411 69.7881411,48.4786839 C69.5987055,48.6549054 69.3569134,48.6112399 69.1417755,48.5228692 L68.4292502,47.7015419 C68.2279154,46.5267319 69.1017941,45.5276236 69.9485426,44.9999988 C70.3788184,45.0441841 70.8362245,45.132035 71.0504104,45.586884" id="Fill-15"></path>
                        <path d="M43.0699474,55.5472157 C42.9170926,55.8430946 42.8933523,56.2571574 42.7050952,56.5765054 C42.2586094,57.5944797 41.5172431,58.4230244 40.7050721,59.1928963 C40.4585053,59.1702653 40.2823267,59.2406727 40.0824077,59.0977624 C39.6113485,58.6250267 39.7292174,57.8547358 39.6350889,57.2047242 C39.6467508,56.9553645 39.6350889,56.6946893 39.717139,56.4595788 C39.6113485,55.9017674 39.7762817,55.2869596 39.7996056,54.7538747 C39.9407984,54.162536 39.9995246,53.487798 40.3410529,52.9425594 C40.5880362,51.9493116 41.4347765,51.0843058 42.2819333,50.5524782 C42.5289166,50.5399054 42.8229641,50.5277518 42.9054307,50.7771115 C43.3290091,51.0021638 43.4114757,51.5809298 43.3527495,51.9958308 C43.5997327,53.1198353 43.2936068,54.4227921 43.0699474,55.5472157 L43.0699474,55.5472157 Z M44.9999988,52.8247946 C44.9999988,52.101861 44.7875849,51.3919193 44.6230682,50.6945504 C44.4818754,50.1023735 43.8108972,49.7235144 43.3290091,49.557554 C42.8229641,49.557554 42.2935952,49.4280546 41.7996287,49.557554 C41.7521479,49.5340848 41.7059166,49.4632583 41.6580194,49.557554 C40.4939076,49.8299637 39.8941506,51.048683 39.1761082,51.9124315 L39.1761082,52.0310345 C39.117382,52.1370647 39.0590723,52.316017 38.8937226,52.316017 C39.000346,52.4459355 38.7766867,52.339067 38.7529463,52.4576701 L38.8708152,52.5641194 C38.6471558,52.8599983 38.5884296,53.2510111 38.5055465,53.5590436 C38.211499,54.4579958 38.0469823,55.4768082 37.8824656,56.4595788 C37.7650132,56.6469129 37.9882561,56.8736416 37.799999,57.025772 L37.8824656,57.1095903 C37.9407753,57.1925705 37.8824656,57.2872853 37.8237394,57.3463773 C37.9645157,57.4293575 37.7762586,57.5710105 37.9407753,57.6544098 C37.9407753,58.4582281 38.3172894,59.1099161 38.6938036,59.761604 C39.4347534,60.3529427 40.2935721,60.3055853 41.2111171,60.2942698 C42.5997212,58.9561093 43.6701209,57.5479605 44.3998253,55.8309409 C44.5051993,55.4516627 44.658054,55.0979491 44.7988303,54.7308246 C44.8933753,54.1026058 44.9754254,53.5825128 44.9404396,52.9073557 L44.9999988,52.8247946 Z" id="Fill-17"></path>
                        <path d="M84.9225759,49.611499 C85.313118,49.8415508 85.8064345,50.2143198 85.9824912,50.7072269 L86.1339715,50.8750795 C86.1715065,51.7173244 86.7519576,52.7644858 86.0700728,53.4508068 C85.8064345,53.6915091 85.5410088,53.6199374 85.250113,53.5117279 C85.0101574,53.2944568 84.5561633,53.0171167 84.6196153,52.6081358 C84.5811866,51.9222409 85.3265234,51.2239913 84.7961189,50.5632316 C84.7585839,50.5990174 84.7585839,50.6467318 84.7076436,50.6714411 C84.7076436,50.4426674 84.4292595,50.3459605 84.2532027,50.2739628 C84.1522158,50.2739628 84.0257588,50.2505316 83.9761591,50.3587411 C83.622705,50.1529727 83.2308223,50.3706698 82.91535,50.5023105 C82.6003246,50.8277911 82.8898799,51.3083436 82.8022984,51.6815386 C82.7897867,53.2944568 82.4229273,55.003656 83.4707779,56.3388081 L83.6472815,58.0113694 C83.7107334,58.1072243 83.6347698,58.3359979 83.7107334,58.4684907 C83.7482683,58.6972643 83.5722116,58.9009027 83.4707779,59.1062452 C82.8778151,60.1286973 81.9814449,61.3322087 80.5560107,61.1882134 C80.0130945,60.8627328 79.4067264,60.9832969 78.7757819,60.8750874 C78.5612965,60.8388756 78.4107099,60.7063828 78.2203541,60.6339591 C77.9929102,60.0562736 77.7283782,59.4909428 77.4379292,58.9371146 C77.4258644,58.3244953 77.2739373,57.7340292 77.6774379,57.2049102 C77.9549284,57.0123484 78.2082893,56.6272248 78.6243016,56.650656 C78.8767688,56.8436438 79.1542593,56.9514273 79.2807163,57.2649793 C79.3817031,57.8060269 79.0412076,58.240143 79.0152906,58.7569074 C78.8897273,58.9371146 78.7373533,59.1292504 78.801252,59.3341668 C78.6877535,59.4189451 78.7632703,59.5757211 78.7373533,59.6839307 C79.3441682,60.1891924 80.3535901,60.3097566 81.0730099,60.0328424 C81.7924296,59.4675116 82.0699201,58.5281337 81.8938633,57.7221006 C81.3884821,56.2548818 80.9715761,54.8579566 80.7700492,53.2705996 C80.7445791,52.3670076 80.8330543,51.3803412 81.5019807,50.6714411 L81.5019807,50.5866628 C82.4229273,49.767849 83.6347698,49.2638653 84.9225759,49.611499" id="Fill-19"></path>
                        <path d="M67.4681332,49.9445899 C67.6459842,52.310628 66.547384,54.3598119 66.0864536,56.5508337 C65.8878533,57.207767 65.6788785,57.8402312 65.5117727,58.4955055 C65.322806,58.7654952 65.2494425,59.1404116 65.1868241,59.3979593 C65.4169188,59.7376237 65.7100024,59.3627072 65.9615874,59.3154279 C66.2646751,59.0350701 66.5992572,58.6477117 66.6418673,58.2375431 C66.8404676,58.0973642 66.8504717,57.8045643 67.0183185,57.6523582 C67.2065441,57.1953251 67.59337,56.7270942 68.0228059,56.5508337 C68.2110315,56.5508337 68.3573881,56.7378772 68.3999983,56.9257502 C68.3999983,57.2898837 68.2947697,57.6175208 68.2947697,57.9924373 C68.0857948,58.1446434 68.3999983,58.3312722 68.2210357,58.4955055 C67.6144898,59.3855174 66.8193478,59.9246672 65.9089731,60.1826296 C65.6888826,60.0532337 65.4906529,60.2999984 65.2601876,60.2999984 C64.7788785,60.0880711 64.1719621,59.9599193 63.8999983,59.4211842 C64.0774787,58.4129741 64.2138312,57.5001521 64.5799077,56.5856711 C64.7477546,55.8478653 65.1238352,55.1453117 65.3328101,54.395064 C65.4795372,54.1619854 65.5632753,53.9044377 65.6577587,53.657673 C65.9930818,52.6498776 66.4321514,51.6897763 66.5366388,50.5650269 C66.3595289,50.5301895 66.222806,50.5069646 66.1075734,50.7052058 C65.5632753,51.33767 65.0089732,52.2293408 64.2238353,52.4748613 C64.1189773,52.3574926 63.8473841,52.1932592 64.0037447,52.0053863 C64.3286932,51.631714 64.4750498,51.1045914 64.9041152,50.8822958 L64.9041152,50.7877372 C65.5002864,50.2494169 66.0445845,49.7695736 66.7352391,49.4999987 C67.0283226,49.5219794 67.374391,49.5817006 67.4681332,49.9445899" id="Fill-21"></path>
                        <path d="M52.2571911,55.511315 C51.9697755,56.589867 51.682802,57.6662992 51.1207938,58.6367416 C50.5088195,59.3430575 49.6465725,60.0252077 48.5977264,59.7386113 C47.0991854,57.5840511 48.5853455,55.1157611 48.8723189,52.9247404 C49.5594635,52.0153481 50.0210972,50.243199 51.6328359,50.709554 L51.8950474,51.021164 C52.0321225,51.5960526 52.0949118,52.1832359 52.4442324,52.6614618 C52.4689944,53.6077386 52.5441646,54.578181 52.2571911,55.511315 M53.2432479,50.8545481 C52.8939274,50.1342415 52.0692655,49.6199791 51.2702499,49.4999987 C50.5459625,49.5847905 49.8716411,49.8239035 49.2976941,50.1952916 C48.7600057,50.3975201 48.3231339,50.8774419 47.9114663,51.2607009 L47.9114663,51.3450688 C46.6119053,52.9247404 46.3877211,54.9851817 45.8999988,56.8637446 C46.0251351,57.6552762 46.3501359,58.373463 46.6251706,59.1047924 C46.9117019,60.0023139 47.6488126,60.8637988 48.5977264,61.1999984 C49.0350404,61.1749848 49.4719122,61.152091 49.8344981,60.9727563 C49.9463692,60.8040206 50.2090229,60.9477427 50.2833088,60.7450902 C51.7199449,60.073539 52.6440968,58.6604833 53.3688265,57.3436663 C54.2182503,55.4400898 54.2430123,52.8174788 53.2432479,50.8545481" id="Fill-23"></path>
                        <path d="M61.6452021,50.5613409 C61.7659872,50.5858415 61.9226236,50.490746 61.9947532,50.6439785 C62.0553591,51.5351358 61.7903149,52.4856759 60.8974446,52.9192119 C60.3319317,53.0251043 59.9576261,53.5753296 59.3912596,53.6808068 C60.0784112,52.6139926 60.9221992,51.6177734 61.6452021,50.5613409 L61.6452021,50.5613409 Z M63.7544587,58.3263691 C63.7186074,58.4314309 63.6106264,58.338827 63.5500205,58.4085914 C62.8270175,58.7831598 62.838968,59.7806248 62.0190809,59.9093568 C61.8022654,59.3105456 61.6575794,58.6195457 61.380158,58.0211498 C61.1509652,57.457636 60.9461001,56.8596554 60.5722213,56.3912372 C60.4399126,56.0033803 60.1744417,55.6632788 59.8850697,55.3468473 C59.7642847,55.1595631 59.4638159,54.9822452 59.3912596,54.7488667 L60.1987694,54.4440626 C60.6080727,54.3145002 61.006706,54.1513013 61.380158,53.9399317 C62.5495961,53.5292353 63.6225769,52.4142505 63.7911637,51.207077 C63.8871942,50.4679065 63.5862987,49.7752455 63.007128,49.31887 C62.2124223,49.1315858 61.5978271,49.6926079 61.006706,50.1631024 C60.4761908,50.7021156 60.0058548,51.3349784 59.4510119,51.7456749 C59.6089287,50.3856841 60.0058548,49.1191278 60.3434553,47.829732 C60.7173341,46.6786192 61.090786,45.4473604 61.500943,44.3680884 C61.5124666,43.9698499 61.8624445,43.6538337 61.729709,43.2663921 C61.7779376,42.8909931 61.3916816,42.6800388 61.1509652,42.4570418 C60.8500696,42.4221596 60.5722213,42.2456723 60.2593753,42.3166825 C59.8850697,42.3278946 59.8492184,42.714921 59.6204524,42.7377605 C59.1018877,43.3834966 58.2576729,43.7588956 57.86032,44.5101088 C57.715634,44.8032854 57.5231462,45.1433869 57.678929,45.4942853 C58.1859701,45.7874619 58.4505875,45.1193016 58.7762376,44.8734651 C58.8364167,44.5329483 59.2102954,44.2979087 59.4151605,44.0869544 L59.4510119,44.1102092 C59.5235683,43.9818925 59.668681,43.9818925 59.7886124,43.9698499 C59.8850697,44.2169322 59.8850697,44.6625108 59.7886124,44.8958894 C59.7527611,45.3418833 59.668681,45.7646224 59.5355187,46.1628609 C59.2585241,47.4651299 58.6196011,48.6029543 58.5231438,49.962945 C57.5705213,51.4769988 57.221397,53.2244312 56.6665541,54.8896413 C56.6068018,55.3352199 56.4373613,55.7106189 56.414314,56.1561976 C56.172744,56.2263772 56.3046259,56.4842564 56.2687745,56.6370737 C55.9674521,57.6332929 55.6665565,58.7474471 55.2201214,59.7337 C55.0758622,59.9795364 54.8586199,60.2025334 54.9068486,60.5193801 C55.0519613,60.8702785 55.4736419,60.7544197 55.7386861,60.7776745 C56.3413308,60.2025334 56.7147828,59.5576279 56.871846,58.8068299 C57.2696257,57.8106107 57.4023612,56.6723711 58.2576729,55.8754789 L58.3788847,55.8754789 C59.4638159,57.2230117 59.4638159,59.0057415 60.657155,60.2967984 L60.657155,60.3790208 C61.090786,60.6842401 61.5252707,61.0355537 61.9947532,61.1999984 C63.2124199,60.7652166 63.6947064,59.5684247 63.8999985,58.4671437 L63.7544587,58.3263691 Z" id="Fill-25"></path>
                        <path d="M77.1819747,51.7867079 C76.6904562,52.2963634 76.2473256,52.6554203 75.6598805,53.0140668 C75.2163254,53.4096448 74.6768436,53.6751417 73.9930472,53.5709126 C74.2451733,52.6898897 74.7124978,51.9011958 75.3954452,51.2060617 C75.9710057,50.7776557 76.6068387,50.3373494 77.4099068,50.5109277 L77.4693304,50.7550864 C77.3258648,51.0796737 77.4820641,51.51998 77.1819747,51.7867079 M79.1361636,50.0599523 L79.0886247,49.8974535 C77.7936137,48.8777321 76.3661729,50.1641814 74.9404299,49.9787029 L74.2451733,50.4764583 C74.173016,50.6151568 73.9692778,50.7776557 73.7897335,50.8351047 C73.7175762,51.0099141 73.5134135,51.1371228 73.4773349,51.3115219 C73.1539005,51.4157509 73.1539005,51.7867079 72.8661203,51.9011958 L72.9017745,51.9258168 C72.3504079,52.5741708 72.0150888,53.3743546 71.5116857,54.0350192 C71.4395284,55.4954572 70.9598947,56.9431743 71.1402879,58.4618821 C71.1402879,58.6941406 71.3919895,58.8566395 71.2599841,59.0995671 L71.3431772,59.0995671 C71.4998009,59.4705241 71.6313819,59.8644607 71.9790102,60.1311886 C72.5422614,60.4553656 73.2022883,60.2354177 73.7897335,60.108209 C74.7362673,60.1886377 75.3593666,59.517304 76.0673569,59.042118 C76.8220372,58.3346734 77.2541319,57.4651404 77.1221266,56.5147682 C77.0741632,56.4331085 76.9663517,56.398639 76.8941944,56.4331085 C75.7193041,56.5040991 75.9595454,57.7905485 75.6836499,58.5435419 C75.5041056,58.9021884 75.1318589,59.0298074 74.7965398,59.1570162 C74.3169061,59.3539845 73.5736861,59.413075 73.1539005,58.9608685 C72.7583088,58.2411135 72.7583088,57.4421607 72.7829272,56.5960177 C72.7943875,56.5147682 72.9145081,56.398639 72.8054233,56.3535004 C72.9743562,55.7273053 73.046089,55.0777202 73.4174868,54.5450851 L74.0172412,54.5676544 C74.3525603,54.4634253 74.7124978,54.4515251 75.0240475,54.2902573 C75.4684514,54.0694887 75.8873881,53.8257404 76.3551371,53.652162 C76.4268699,53.5364431 76.618299,53.547933 76.7269593,53.4318037 C77.1221266,53.3386541 77.4574457,53.130196 77.8772313,53.0957265 L78.908656,51.5318802 L78.9443102,51.3464017 C79.1361636,50.9635445 79.2923629,50.5109277 79.1361636,50.0599523" id="Fill-27"></path>
                        <path d="M19.8421334,0 C19.8421334,0.15715453 20.0390849,0.114384626 20.1517687,0.171576939 C20.6299396,0.585350891 21.1923783,1.07073956 21.5299395,1.64216537 L21.5999994,3.35495081 C21.5020136,3.66925987 21.1081105,3.62648997 20.883233,3.52652775 C20.6999995,3.35495081 20.9670109,3.19779628 20.9253669,3.01229426 C20.9532929,2.15590154 20.3908541,1.62774296 19.8705493,0.999622166 C19.5187801,0.956354938 19.1812189,0.913585035 18.8999995,0.684815783 C18.9421334,0.428196361 19.1812189,0.185999348 19.4060964,0.0716147224 C19.5467061,0.0144224094 19.7015237,0.0999622166 19.8421334,0" id="Fill-29"></path>
                        <path d="M19.861734,2.83495283 C20.0945179,3.42212579 20.5953684,3.65355051 20.6999995,4.31822384 C20.6184845,4.75093424 20.3739397,5.27621454 20.0012422,5.35317672 C19.79198,5.09107476 19.861734,4.67397207 19.6987042,4.39518601 C19.0583456,4.44200915 18.5112629,4.78161147 18.045695,5.39999986 C17.8477881,5.32249949 17.6267651,5.4462848 17.5217284,5.13682151 C17.8826652,3.97862151 18.9654754,4.33383155 19.6171892,3.68476594 C19.5007973,3.48455664 19.2797742,3.3295559 19.1167444,3.12827021 C18.7209306,2.77359837 18.2902398,2.35595748 17.8011503,2.54163545 C17.6498813,2.75799066 17.4402135,3.05130804 17.2074296,2.72677523 C17.1145594,2.63420534 17.0910376,2.49535051 17.1027985,2.35595748 C17.2074296,2.0626401 17.4402135,1.83121538 17.6847583,1.79999995 C18.464625,1.86189261 19.2915351,1.98513973 19.861734,2.83495283" id="Fill-31"></path>
                        <path d="M24.2987529,4.71548986 C24.2572283,4.98044907 24.4098069,5.22348857 24.0911301,5.39999986 C23.6198747,5.19041674 23.5363428,4.72664199 23.2316685,4.39515456 C23.0375653,4.35131516 22.8849867,4.09750808 22.6358394,4.13057991 C22.3301994,4.00906016 22.6358394,3.83254888 22.6358394,3.67795729 C22.8294597,3.52336571 23.106612,3.6445009 23.32872,3.65565303 C23.8419828,3.9209968 23.7449312,4.45091521 24.2987529,4.71548986" id="Fill-33"></path>
                        <path d="M21.5017893,5.25594744 C21.6658919,5.49034671 21.611509,5.91259209 21.4335722,6.15842548 C21.3372096,6.13514889 21.2418011,6.08859573 21.173107,6.01794926 C21.0090044,5.61938882 20.9951701,5.12731369 20.5429338,4.89250605 C20.2557543,4.90434852 19.9680976,4.93946758 19.9542634,5.22082838 C19.7486581,5.57242729 19.6532496,5.95955362 19.2286818,6.24050606 C19.1871791,6.31074417 19.1056048,6.29931006 19.0369107,6.29931006 L18.8999995,6.18211042 C18.9133567,5.60754635 19.0369107,4.95131005 19.7214667,4.6348302 C20.0363147,4.5760262 20.3926655,4.40043092 20.7070365,4.5760262 C21.049553,4.70465994 21.3510438,4.96315252 21.5017893,5.25594744" id="Fill-35"></path>
                        <path d="M24.1746101,6.10169488 C24.755116,6.21498935 25.2393704,5.97836166 25.701528,6.27665596 C25.2925522,7.16185866 26.5936346,7.8925363 25.8839192,8.74654716 C25.7228756,8.9731361 25.4865535,9.04519999 25.2393704,8.9731361 C24.9165341,8.93190552 25.1963006,8.64364996 25.110161,8.49952219 C25.4865535,8.0571001 24.9382563,7.48058899 25.0779523,6.92523096 C24.8090469,6.56491152 24.2607497,6.66780871 23.8416618,6.64701416 C23.6693826,6.56491152 23.5300612,6.43082249 23.4869914,6.25621993 C23.5192001,6.16372002 23.5409223,6.02963099 23.4547827,5.9575671 C23.4008518,5.84463116 23.272017,5.87510593 23.1750163,5.83423388 C23.0458069,6.0604643 22.7772761,5.9267338 22.626719,6.10169488 C22.5083707,6.07086157 22.4656755,5.93713107 22.5297184,5.83423388 C22.8416935,5.59760618 23.1319465,5.25772277 23.5300612,5.46351716 C23.8203142,5.58720891 24.0030799,5.87510593 24.1746101,6.10169488" id="Fill-37"></path>
                        <path d="M23.3144506,7.50544118 C23.3454894,7.64247699 23.4239031,7.76566598 23.3928643,7.92991795 L23.2360369,8.06743124 C22.7519409,8.01252142 22.173095,8.16292657 21.7042462,8.06743124 C21.5011328,7.92991795 21.6574158,7.75181915 21.6574158,7.57372035 C22.0010204,6.94345113 22.8924322,7.24473892 23.3144506,7.50544118" id="Fill-39"></path>
                        <path d="M24.2370734,9.38783483 C24.2496829,9.52762668 24.3866482,9.76020789 24.2118544,9.89999974 C23.7000828,9.89999974 23.163527,9.39958545 22.6517553,9.78370913 C22.4021743,9.70185999 22.5269648,9.43443212 22.5643585,9.28329485 C22.9891681,8.75978452 23.8126987,9.06205906 24.2370734,9.38783483" id="Fill-41"></path>
                        <path d="M17.0670572,9.16970567 C17.1327914,9.41665934 17.1199203,9.68631241 16.8427334,9.84364264 C16.7503377,9.79863523 16.6184096,9.82133462 16.4998122,9.82133462 L16.4336183,9.89999974 C16.2883594,9.77632722 16.2092945,9.641305 16.2092945,9.43935873 C16.169762,9.24837078 16.248827,8.93371032 16.5922078,9.01237543 C16.737007,9.01237543 16.9217983,9.07969086 17.0670572,9.16970567" id="Fill-43"></path>
                        <path d="M23.3472375,9.55834971 C23.528105,9.97690957 23.1818728,10.3375275 23.2318267,10.7098958 C23.0509592,10.8379354 22.8362148,10.8144345 22.638696,10.7329916 C21.9956113,10.4076251 21.9462316,9.86062043 21.5999994,9.41896481 C21.5999994,9.18638654 21.8968519,9.05794174 22.160976,8.99999976 C22.6214705,9.0700974 23.1003389,9.23257804 23.3472375,9.55834971" id="Fill-45"></path>
                        <path d="M24.0830754,10.4094862 C24.4272521,11.1972557 24.3924747,11.9471391 23.7562873,12.5968639 C23.5494215,12.6094926 23.3773331,12.5846706 23.2220339,12.5097694 C23.4804662,11.9223172 23.411511,11.4219595 23.4283001,10.7970566 C23.187856,10.4595655 22.2410702,10.5218381 22.5678582,10.0219158 C23.0841233,9.78414793 23.9793427,9.88430657 24.0830754,10.4094862" id="Fill-47"></path>
                        <path d="M20.6750917,10.1804597 C20.8634704,10.856497 19.9103819,11.1245118 20.2539416,11.7752144 C19.9327712,12.1712363 19.5116211,12.6685971 19.002072,12.5921484 C18.8136932,12.425917 18.9352902,12.1325675 18.9796827,11.9285562 C19.0904711,11.4947545 19.9327712,11.8263283 19.5336244,11.2525189 C19.6779967,10.6782649 20.1543479,10.4355849 20.3867332,9.89999974 C20.5087162,9.93822407 20.6527024,10.0275623 20.6750917,10.1804597" id="Fill-49"></path>
                        <path d="M22.4999994,12.2485472 C22.302847,13.2184963 21.4523857,13.916085 20.5765823,14.3775731 C20.2067605,14.4958294 20.0216348,14.117574 19.7999995,13.916085 C19.8369387,13.7743422 19.9353001,13.6560859 20.0710303,13.5852145 C20.354947,13.5262924 20.4163692,13.9045478 20.7243393,13.7269573 C21.0945906,13.2893677 21.9330252,13.1356757 21.8466905,12.4141885 C21.6740211,12.2839829 21.4399294,12.3668036 21.2178645,12.3074694 C21.1804958,12.1776759 21.1439861,11.9053155 21.3166555,11.7870592 C21.4764391,11.6692149 21.7723825,11.6807521 21.9575082,11.7635727 C22.1795731,11.8348561 22.377155,12.0594195 22.4999994,12.2485472" id="Fill-51"></path>
                        <path d="M10.7940841,12.040986 C10.8446372,12.363955 10.5583656,12.428399 10.4231655,12.5999997 C10.2544592,12.4928429 9.95055283,12.6217308 9.89999974,12.2987617 C9.93409368,12.0192549 10.1357182,11.8896177 10.3050123,11.718017 C10.5242716,11.6325913 10.6424248,11.8693853 10.7940841,12.040986" id="Fill-53"></path>
                        <path d="M24.2380141,12.8537888 C24.3798116,13.2084484 24.2499333,13.6669285 24.1315632,14.0212251 C23.9194835,14.1878461 23.6601379,14.1983734 23.5298486,14.427432 C23.5298486,14.6045803 23.4242197,14.8027831 23.5068322,14.9483496 C23.4825827,15.41772 23.5068322,15.9905479 22.9400531,16.1782234 C22.7990776,16.1364774 22.6215224,16.2929342 22.53891,16.1052587 C22.4094427,15.6050325 23.3058496,15.0735876 22.53891,14.7505098 C22.3621768,14.5214512 22.8340132,14.3025569 23.0226656,14.1461001 C23.2232371,14.0629711 23.4353169,13.9275688 23.5651952,13.729366 C24.0493618,13.3227962 22.7394815,12.7601325 23.7546696,12.6040387 C23.9667493,12.57282 24.0966276,12.7289137 24.2380141,12.8537888" id="Fill-55"></path>
                        <path d="M20.5839246,14.7918993 C20.5148322,15.6716527 20.8107949,16.4477554 20.6530169,17.2984049 C20.6231113,17.5036637 20.4952389,17.6353969 20.5148322,17.8554629 C20.3866161,18.1633511 20.1690268,17.8697596 20.0215611,17.9575817 C19.429292,17.3132122 20.2185258,16.6678214 20.1597457,15.9203119 L20.1597457,14.4840112 C20.3274923,14.2348413 20.4852703,14.6009372 20.5839246,14.7918993" id="Fill-57"></path>
                        <path d="M15.1583744,18.9499495 C15.0809744,19.2082495 15.3131744,19.6735495 14.9513744,19.7500495 L14.5382744,19.7500495 L14.5382744,18.9499495 L15.1583744,18.9499495 Z" id="Fill-59"></path>
                        <path d="M15.2999996,27.9876723 C15.1358205,28.2657696 15.0325812,28.5647148 14.6619236,28.7999992 C14.1887437,28.5967314 14.4769533,28.1801439 14.6002668,27.9020467 C14.8676852,27.8912504 15.094238,27.9236392 15.2999996,27.9876723" id="Fill-61"></path>
                        <path d="M14.3999996,28.2836626 C14.3140126,28.5252468 14.1766722,28.837623 13.9025886,28.9232666 C13.6798583,29.1792071 13.8685521,29.4490091 13.4917617,29.648019 C13.285154,29.9747517 13.3371045,30.5856428 12.6683166,30.5999992 L12.6002436,30.5287121 C12.5829267,29.5202962 13.4917617,28.7242567 14.0393318,27.8999993 C14.2793789,27.9282171 14.2793789,28.1559398 14.3999996,28.2836626" id="Fill-63"></path>
                        <path d="M12.3584424,31.1038908 C12.2549424,31.2073908 12.1523424,31.3621908 11.9966424,31.2847908 C11.8157424,31.1038908 12.0749424,30.8977908 12.2288424,30.7942908 C12.3323424,30.8716908 12.3845424,30.9742908 12.3584424,31.1038908" id="Fill-65"></path>
                        <path d="M5.02911281,31.3600492 L4.89951282,31.3600492 L4.84821282,30.7399492 C4.84821282,30.9721492 5.13261281,31.1017492 5.02911281,31.3600492" id="Fill-67"></path>
                        <path d="M11.6898625,31.3663451 C11.8948991,31.352769 12.012501,31.1374244 12.188904,31.0166442 C12.3059947,31.1641084 12.5411987,31.1510005 12.5999997,31.3391929 C12.5411987,31.7282176 12.115275,31.9571383 11.7926365,32.1720148 C11.5722606,32.0919627 11.5579438,32.3059029 11.4843147,32.3999991 C11.1463368,32.3466311 10.9556171,32.0109744 10.8385264,31.7553698 C10.7352412,31.3663451 10.8385264,30.9085037 11.1616762,30.5999992 C11.4551699,30.7212476 11.5870886,31.0835883 11.6898625,31.3663451" id="Fill-69"></path>
                        <path d="M11.6999997,49.7256739 C11.5248787,50.2102487 11.8254595,50.8800701 11.2251691,51.2999986 C10.9995157,50.7393696 10.9245883,50.2716354 10.7999997,49.694709 C10.9245883,49.4301485 11.5998061,49.4301485 11.6999997,49.7256739" id="Fill-71"></path>
                        <path d="M12.7962516,50.4615885 C12.5756784,51.1080671 12.269777,51.8161757 12.269777,52.5476612 C12.11064,52.6449943 12.2087674,52.9017156 12.1840222,53.0117997 C12.0248852,54.3170827 12.1716496,55.4884797 12.5027228,56.7083307 C12.5756784,57.038158 12.7228694,57.3424832 12.8329427,57.6723105 C13.1879078,58.9168135 13.8982646,60.0763095 14.620994,61.2107285 C15.7234336,62.7965347 16.8501917,64.24888 18.1847239,65.7250272 C18.2709053,65.9320193 18.5405422,66.1033085 18.7359437,66.2495206 C18.8955073,66.3719308 18.9936347,66.701333 19.262845,66.664355 C19.5811189,67.1773724 20.1690298,67.5671297 20.6221223,67.9458361 C21.3934887,67.5552287 21.6140619,68.8851638 22.4101735,68.6165416 C22.4959283,68.6777466 22.5083009,68.7627537 22.4959283,68.8605118 C22.4959283,68.9829219 22.3001002,69.08068 22.1776543,69.116808 C21.92039,69.129134 21.7855715,68.8605118 21.5039886,68.9459439 C21.4306064,68.8605118 21.2471509,68.8605118 21.1733421,68.9459439 L20.9403963,69.2392181 C20.3648579,69.2757712 19.7897462,69.2392181 19.1770902,69.2999982 C19.103708,69.2264671 19.0298991,69.153361 19.0670169,69.0313759 C18.5891793,68.9586949 18.0627046,68.9586949 17.6829944,68.7385267 C17.6339307,68.6407686 17.7563766,68.6046406 17.7930677,68.5311095 C18.2342142,68.5064575 18.626297,68.4580035 19.1160806,68.4699044 C19.3242812,68.3972234 19.6058641,68.5064575 19.7650011,68.3236923 C19.6549278,68.1043742 19.3852908,68.0066161 19.1770902,67.884206 C18.7359437,67.4455696 18.0746506,67.0303103 17.6463033,66.4573628 C17.2299019,66.1033085 16.9112013,65.5907161 16.4704815,65.2243357 C14.7314939,62.8088608 13.4208536,60.2956277 12.3307866,57.6115305 C12.11064,57.5014464 12.2817229,57.2204981 12.0615763,57.1112641 C12.0615763,56.9765279 12.0125126,56.8549678 11.9510764,56.7329827 C11.9020127,56.7448837 11.8410031,56.7937628 11.8286305,56.8549678 C11.8776942,57.6965375 11.7556749,58.5869862 11.7185572,59.392853 C11.17971,59.392853 11.7795668,60.649682 10.9834552,60.1243385 C11.2287736,59.7949362 10.910073,59.465959 10.7999997,59.1607837 C10.7999997,57.5873035 11.5103565,56.0984052 11.3264744,54.4513939 C11.2530922,54.0480355 11.1430188,53.6706042 10.9834552,53.3042239 C10.9834552,52.9505946 10.9595633,52.4749802 11.0082004,52.1328269 C11.0329455,52.0839479 11.0939552,52.1081749 11.1306463,52.1081749 C11.1920825,52.1570539 11.2287736,52.218684 11.2164011,52.3160171 C11.4612928,52.5357603 11.4489202,52.8774886 11.6204298,53.1333597 L11.7185572,53.1333597 C12.0615763,52.218684 12.3307866,51.3890153 12.5027228,50.4131345 C12.6004235,50.4250355 12.7471879,50.3515044 12.7962516,50.4615885" id="Fill-73"></path>
                        <path d="M18.4156392,60.3531542 C18.9005263,60.7850405 18.5609364,61.6361572 19.2278673,61.9086569 C19.0580723,62.033635 19.3005159,62.1246 19.3372626,62.2381086 C20.4286809,63.5661987 21.7861958,64.5316149 23.09556,65.5872052 C24.3808487,65.5872052 25.472267,66.3592218 26.733058,66.0752526 C26.8297819,66.1096611 26.9510037,66.1662177 26.9999993,66.2686523 L26.9999993,66.8136517 C26.0906248,67.6536943 25.3873695,68.5732326 24.4657462,69.2657536 C21.4711037,69.4927708 18.2458442,70.9232954 15.2634507,69.7312575 C14.9238607,69.719788 14.5842708,69.5726618 14.4267247,69.2657536 C14.3173295,68.9596364 14.559773,68.6412586 14.8630387,68.52775 C15.4087478,68.2777938 16.0752564,68.0737157 16.6695388,68.3913024 C16.6695388,68.5961716 16.4756684,68.7432977 16.3181223,68.8572018 C15.8328129,68.8797453 15.4450721,68.5847021 15.0083358,68.8227933 C15.4087478,69.152245 15.954457,69.2202711 16.4634195,69.3677927 C17.8821789,69.799679 19.4462354,69.5042403 20.8282482,69.4247447 L21.0829406,69.3227056 C21.1682605,69.4472882 21.3372107,69.2317406 21.4711037,69.3448537 C22.2106832,69.0502059 23.0710622,69.0727495 23.8473884,68.7773107 C23.9567836,68.7203587 24.1747294,68.7887802 24.1747294,68.6072456 C23.8473884,68.3458199 23.3620789,68.7887802 23.0355826,68.4482545 C23.653518,67.8348335 24.9747087,68.5732326 25.5444932,67.7106464 C25.83551,67.3926641 26.0057273,67.0402734 26.235922,66.6997476 C25.5444932,66.6206475 24.6836919,66.3362828 24.1747294,66.9497038 C23.7988152,66.8816777 23.4714742,66.7112171 23.1200577,66.598104 C21.834769,65.3945966 20.3919342,64.3722283 19.2278673,63.0781513 C19.1188944,63.0666818 19.0698989,63.0105207 19.0462458,62.9191602 C18.6458338,62.4085693 18.2458442,61.9086569 18.0274761,61.3296444 C17.7364593,60.9100186 17.9062543,60.2962021 17.4213672,59.9449979 C17.3850429,59.7630677 17.1303505,59.5926071 17.2756476,59.3999984 C17.86993,59.5131115 17.8336057,60.2060281 18.4156392,60.3531542" id="Fill-75"></path>
                        <path d="M11.5598058,60.6194582 C11.4302058,61.1133189 12.1025058,61.7712788 11.2493059,62.0999984 L10.8101059,61.8457747 L10.8623059,60.4105572 C11.1719059,60.140705 11.5598058,60.4256647 11.5598058,60.6194582" id="Fill-77"></path>
                        <path d="M7.10154344,68.8970112 C7.05272282,68.8362115 6.80946876,68.8362115 6.76022362,68.6923888 C6.89437419,68.7162894 7.05272282,68.7527692 7.10154344,68.8970112 L7.10154344,68.8970112 Z M7.68654185,69.992244 L9.14903787,70.4019081 C9.0148873,70.3293677 8.77120871,70.4258086 8.68587876,70.3176271 C6.22404583,70.1608059 3.81145805,69.5226189 1.66632237,68.4034855 C1.39844574,68.1024223 0.849956669,67.7778778 1.08132396,67.3082527 C1.58099242,67.1518507 1.98344415,67.4168535 2.48311261,67.3682137 C2.73867795,67.452914 3.00655458,67.5011344 3.21414835,67.6814369 C3.96980668,67.8382581 4.51829575,68.2948847 5.29772759,68.4034855 C5.18819959,68.6684882 5.34697274,68.8970112 5.44418946,69.1016335 C6.0656972,69.7997816 6.94319482,69.6194791 7.68654185,69.992244 L7.68654185,69.992244 Z M11.488607,12.6015403 C11.2326171,12.8304825 10.9770518,13.0711654 10.6722413,13.1793469 C10.4162514,13.1193858 10.3432327,12.794422 10.0872429,12.7097218 L9.56337637,12.4572983 L9.831253,11.9033922 L11.5251163,12.0480535 C11.6350688,12.2166154 11.5616257,12.4333977 11.488607,12.6015403 L11.488607,12.6015403 Z M9.35620712,13.2636278 C9.25856588,13.1193858 9.10021725,13.010785 9.03908534,12.8543831 L9.25559419,12.6854019 C9.00639675,12.9298585 9.59648949,13.1697028 9.70983824,13.3479087 C9.62408375,13.3961292 9.47804641,13.3357488 9.35620712,13.2636278 L9.35620712,13.2636278 Z M8.16158773,12.4212378 C6.71182752,13.2275673 5.43187817,14.419241 4.3595226,15.7434161 C4.44527708,15.9119779 4.45716384,16.1887213 4.71315371,16.2126219 C5.39536884,15.0934885 6.62607304,14.4431416 7.68654185,13.781054 L7.60121189,13.9856764 C7.12616602,14.2745797 6.65027108,14.6720838 6.26055516,15.0570087 L6.02918787,15.1656095 C5.70017933,15.5266338 5.29772759,15.899818 5.1758883,16.3572832 C5.31003888,16.4654647 5.44418946,16.670087 5.61484937,16.6097067 L6.87017615,15.7190962 C5.85852795,16.5497456 4.74966305,17.4403561 4.1765514,18.6680903 C3.99400472,18.788851 3.8356561,19.0291146 3.62806232,19.0412745 C3.44594018,18.9087731 3.29947831,18.7284706 3.36018569,18.5238483 C3.70150552,17.4885765 3.88447672,16.3572832 4.00589148,15.2859509 C4.1281553,15.18951 3.88447672,15.0331081 4.09164597,14.9970476 C4.01820277,14.9609871 4.03051406,14.8884468 4.03051406,14.8163258 C4.15235335,14.8406457 4.16466464,15.0209482 4.29881521,15.0570087 C5.12749221,15.0209482 5.24890697,14.0942772 5.70017933,13.6124922 C6.40701703,13.0950659 7.16225082,12.1080146 8.1862103,12.3369568 L8.16158773,12.4212378 Z M6.17564973,11.8191113 C6.7725349,11.5905884 7.27220336,11.0970627 7.97861653,11.1209632 C8.00366363,11.2656246 7.88139981,11.4098665 7.74724923,11.445927 C6.62607304,11.4702469 5.85852795,12.3252162 4.94452101,12.8304825 C5.31003888,12.4811988 5.70017933,12.1323345 6.17564973,11.8191113 L6.17564973,11.8191113 Z M19.7999995,22.5320147 C19.6781602,22.0502297 19.4709909,21.4363626 18.8978793,21.3164404 C18.5934933,21.3885614 18.7518419,21.7374258 18.6300027,21.9303075 C18.5565595,23.0012205 18.3740128,24.0121724 18.2763715,25.071764 C17.9842969,26.552341 17.9600988,28.2132206 17.3992985,29.6095166 C16.7896775,31.7278613 15.8272744,33.7984048 15.8756705,36.0853114 L15.9728872,36.1695923 C16.070953,36.1934929 16.1316604,36.1213719 16.2046791,36.0488316 C16.3146316,35.7125465 16.2416129,35.398904 16.265811,35.0139791 C16.3023203,34.7007559 16.6436401,34.9057976 16.7896775,34.7246565 C16.8750074,34.2076496 16.8261868,33.6659035 17.0456673,33.1606372 C17.2528366,32.1127862 17.5941564,31.1261541 17.6671751,30.0187614 C17.862033,29.8019791 17.7401938,29.3809937 18.0692023,29.2967128 C17.837835,31.9563842 17.009158,34.4244319 17.0821767,37.1801249 C17.3381665,37.7705108 18.3133054,37.9990337 18.0208062,38.7454022 C17.5088265,39.2389278 16.7896775,39.2749883 16.0828398,39.3232088 C15.8272744,39.286729 15.9728872,38.998245 15.8514725,38.8535837 C15.8756705,38.6971817 15.7907651,38.5043 15.8756705,38.3961185 C15.8756705,37.6740699 16.3023203,36.9520213 15.8514725,36.3385735 C15.8026519,36.3255749 15.7907651,36.3742147 15.7661425,36.3981152 C15.6931239,37.445547 15.4248227,38.3835392 15.3522286,39.4678701 C15.2053422,39.8888554 14.7302963,40.2859402 15.0351068,40.7916258 C14.912843,40.983669 14.6814757,40.9119673 14.5350138,41.0562093 C14.5112403,41.609696 14.3159578,42.1153816 14.0718547,42.585426 C13.8897325,42.5971666 13.803978,42.1631827 13.6333181,42.4403454 C13.7067613,42.8856506 13.4872808,43.2110337 13.2801115,43.5355782 C12.9027069,43.2714141 12.9027069,42.7053481 12.841575,42.2961034 C12.7316225,42.1879219 12.8046411,42.0076194 12.7804431,41.8625388 C12.9634143,40.3576419 13.1094516,38.7215016 13.3412435,37.2405053 C13.7432707,34.2676106 14.6695889,31.6075199 15.4736433,28.8027678 L15.4367095,28.6585258 C15.5954826,28.4178429 15.6201052,28.117199 15.7054351,27.8521963 C15.8756705,27.3104501 15.9491137,26.7326435 16.2046791,26.2273772 C16.3146316,25.8902535 16.5336876,25.5413891 16.5583102,25.216006 C16.704772,24.6503594 16.8508094,24.0847127 16.8750074,23.4586857 C16.704772,23.3022837 16.3999616,23.2662232 16.2046791,23.3383442 C16.156283,23.8922503 16.180481,24.5421779 16.0221324,25.071764 C15.0593048,27.9486371 14.2917597,30.7890304 13.5356769,33.7384438 C13.0487443,35.0022385 12.8534618,36.4341757 12.5732738,37.7583508 C11.7811062,38.7215016 10.6234207,39.3232088 9.91658296,40.2976809 C9.64870633,40.5505237 9.56337637,40.8880667 9.35620712,41.1404902 L9.03908534,40.8155264 L9.03908534,39.4921899 C9.13672659,39.1542276 9.44111255,39.0460461 9.70983824,38.8896442 C9.39271646,38.4439196 9.1978585,37.7344503 9.53917832,37.2405053 C10.1606861,36.5423572 11.0865798,36.2056528 11.6715782,35.4228045 C11.7080875,35.2429214 11.9640774,35.038299 11.7811062,34.8697371 C10.8794105,34.8936377 10.7575712,36.1695923 9.85587557,36.1092119 C9.95309229,35.9645506 10.0384222,35.7842481 10.0019129,35.6161056 C9.46573513,35.2186015 10.0384222,34.5686739 9.940781,34.0026079 C10.355544,33.5573027 9.98960163,32.9677554 10.1483748,32.4381693 C10.1114409,31.0540331 10.6845526,29.6216766 10.9401179,28.2010606 C11.0135611,27.419051 11.9275681,26.8290844 11.5251163,25.998435 C11.8787474,24.0847127 12.3903026,22.2070509 13.0118104,20.4254107 C13.9381286,20.6665128 14.9374655,20.4015101 15.7296332,19.9922654 C16.0221324,20.0161659 16.265811,19.7872237 16.5583102,19.7272626 C16.8750074,19.7394226 17.1067993,19.6190811 17.4358078,19.7033621 C17.4965152,19.9922654 17.3746759,20.4375706 17.752505,20.630033 C17.9108537,20.7746943 18.1668435,20.7625344 18.3617015,20.714314 C18.581182,20.3293891 18.9348131,19.9440449 18.9225019,19.4987397 C18.8736812,19.3662383 18.6911346,19.4022988 18.5688707,19.3540784 C18.3498147,19.1855165 18.0573155,19.0291146 18.0450042,18.7163107 C18.1057116,18.0420632 17.5941564,17.1036516 18.3617015,16.6461865 C18.4228334,16.5015252 18.5081634,16.2369417 18.2763715,16.1522415 C18.0331175,16.2486824 17.7890144,16.0079995 17.6064677,16.2969028 C17.0456673,17.1153923 17.3381665,18.1749839 17.3381665,19.1255554 L17.2528366,19.2098364 C17.0214693,19.1377154 16.704772,19.1855165 16.4606689,19.2941173 C16.0098211,19.3662383 15.5831713,19.5348002 15.1446348,19.3905582 C15.1811441,17.9338817 16.180481,16.8747094 16.4364709,15.5144738 L16.3146316,15.3941324 C14.9497768,14.8884468 13.6821388,15.755576 12.2561521,15.5387937 L12.1708221,15.4545128 C12.1708221,14.8045852 11.9517661,14.2385192 11.7811062,13.6611319 C11.9882754,12.7218817 13.1947816,12.9986251 13.8897325,12.6258601 C14.4377971,11.9637726 15.1811441,11.6266489 15.5343507,10.8924403 C15.5831713,10.7242978 15.5589733,10.5075155 15.4367095,10.3750141 C14.8763336,10.7842588 14.0476566,10.5792171 13.5968088,11.2056635 C13.0118104,11.4945668 12.2442653,11.3381649 11.7322856,11.0127817 C11.6108708,10.4953555 11.9882754,10.1221713 12.3419065,9.76114698 C12.5490758,9.50830418 12.5978964,9.13511994 12.9876123,9.15943981 C13.4019508,9.00261857 13.9627512,9.05083901 14.2183165,8.60553378 C14.0111473,8.31663047 13.6210068,8.35269097 13.3412435,8.20844898 C12.7316225,8.16022854 12.1466241,8.01598654 11.488607,8.02772717 C11.3421451,7.89564511 11.1107778,7.97950674 10.9647405,7.83526474 C10.9770518,7.54636144 11.3302584,7.69060344 11.4644089,7.48598107 C11.8176155,7.51030094 12.1466241,7.19749707 12.5490758,7.30525926 C13.3900641,7.07673633 14.2917597,7.1731772 15.2053422,7.11321614 C15.6077939,6.96855484 16.1070378,6.94465427 16.375339,6.61969047 L16.2046791,6.47502917 C15.2910966,6.33078717 14.3647784,6.21044574 13.4261489,6.39074823 C13.2436022,6.3785883 13.0487443,6.4150681 12.926905,6.43896867 C12.9027069,6.43896867 12.8534618,6.4511286 12.841575,6.4150681 C12.3537933,6.65575097 11.7692194,6.64359103 11.293749,6.87211397 C10.6845526,7.12495677 10.0872429,7.40211944 9.53917832,7.71492331 C9.50224446,7.9673468 9.77054562,8.09984817 9.87964909,8.29272991 C10.0142242,8.47303241 10.3067234,8.40091141 10.465072,8.5812139 C10.7575712,8.61769371 11.0742685,8.59337384 11.293749,8.78625558 C11.5251163,8.81015614 11.7569081,8.94265751 11.9029455,9.13511994 C11.2572397,9.65254618 10.9401179,10.3628541 10.5622887,11.0127817 C9.98960163,11.169603 9.42880126,10.9767213 8.91724605,10.8320599 C6.9555061,9.83326798 5.57834004,11.8191113 4.29881521,12.9747245 C3.79914676,13.6850325 2.99466782,14.2146186 3.04348844,15.1052291 C3.06811101,15.3102708 3.33556312,15.3941324 3.27485574,15.6352346 C3.07999777,16.1765614 2.9458472,16.754368 2.83631919,17.3321746 C2.66565928,18.1263442 2.59264061,19.0291146 2.83631919,19.8237035 C3.45782694,19.7033621 3.95749539,19.8358634 4.53018251,19.5830206 C4.94452101,19.4509386 5.31003888,19.0655944 5.40768012,18.6324491 C5.31003888,17.3799757 6.73602557,16.8386489 7.49168389,16.0683799 C7.8937111,15.6352346 8.58823751,15.7434161 9.03908534,15.345912 C9.11210401,15.1534495 9.25856588,14.9970476 9.20974526,14.7681054 C9.02719858,14.5156819 8.74658614,14.3831805 8.45451146,14.3349601 C8.57635075,14.2628391 8.80771805,14.2263593 8.97837796,14.2745797 C9.69752695,14.2146186 10.465072,14.0221562 11.2326171,14.0942772 L11.3183716,14.419241 C11.4520976,15.2134106 11.2084191,15.9958396 11.8787474,16.525845 C12.5244532,16.4893652 13.170159,16.2851622 13.77978,16.0319001 C14.3401558,15.9958396 14.9497768,15.7190962 15.4978414,15.971939 C15.461332,18.0663831 12.7681318,18.5355889 12.1954447,20.3411297 C11.8787474,22.5076948 10.3190347,24.1689936 9.10021725,25.9745344 C8.62474685,26.2994982 8.19809706,26.7326435 7.93022043,27.1901087 C7.7107399,27.7318548 7.33291074,28.3457219 6.80946876,28.7428067 C6.5895637,28.8270877 6.34630965,29.0799305 6.11451782,28.8631482 C5.90734858,28.5138645 5.52951942,28.0685592 5.76088671,27.7075349 C5.60253808,27.491172 5.80970733,27.1901087 5.70017933,26.925106 C5.82201862,26.3716192 5.84621667,25.8420331 5.78550929,25.2524858 C5.68786804,24.9271027 5.52951942,24.6021389 5.29772759,24.3492961 C5.37117079,23.0733415 5.91923534,21.9902686 6.17564973,20.7746943 C6.13871587,20.3411297 6.6630069,19.7515825 6.05338592,19.4744198 C5.76088671,19.2819574 5.50532137,19.5708607 5.29772759,19.6794615 C5.20051088,20.1004469 4.99334163,20.5218515 5.05447354,20.9793167 C5.16400154,21.1596192 5.3588595,21.1478786 5.49301008,21.26822 C4.6520218,23.8440298 3.51895885,27.5754529 5.93154662,29.6937976 C6.69951623,29.9101606 7.19876016,29.1763713 7.60121189,28.6828457 C7.55239127,28.5260244 7.74724923,28.5742449 7.80838114,28.4899639 C8.00366363,28.1650001 8.3080496,27.8521963 8.68587876,27.7318548 C9.35620712,26.3355587 10.355544,25.0596041 11.2572397,23.7714895 L11.3183716,23.8318699 C11.3909657,24.7107397 11.0012498,25.4692681 10.7940806,26.2630184 C10.465072,26.7930239 10.5869113,27.3947311 10.355544,27.9607971 L10.2337047,28.0207581 L10.2944121,28.0807192 C10.0384222,28.6945863 9.68521566,29.2723929 9.24667912,29.814139 C8.11276711,30.9093718 7.07692087,32.3538883 5.61484937,32.7023334 C5.12749221,32.6910121 5.45650075,32.1006262 5.32235017,31.860782 C5.41999141,31.4993384 5.38348208,30.9575923 5.34697274,30.5361876 C5.13937897,30.1994832 4.79805914,29.9101606 4.38414517,29.958381 C3.92098605,30.2955047 3.99400472,30.8611514 3.73801485,31.2586555 C3.64079814,31.1144135 3.71381681,30.8972119 3.56735494,30.7651298 C2.77561181,27.4429515 3.38480827,23.8800903 3.15344097,20.1126068 L3.06811101,19.9683648 C2.8240079,19.9440449 2.61726318,20.0887062 2.48311261,20.2811687 C2.48311261,24.5539185 1.94651029,28.8149277 3.39669503,32.8230941 C3.93329734,34.0508283 5.32235017,33.1484772 6.26055516,33.2566587 C7.62583447,32.2452875 8.88073672,30.8972119 9.85587557,29.5851968 C9.86818686,29.8019791 9.84356429,30.0787224 9.77054562,30.3076647 C9.69752695,30.9936528 9.55106508,31.5953599 9.44111255,32.2452875 C9.20974526,33.3765809 8.86884996,34.5565139 8.71050133,35.7603476 C8.52753013,36.4823962 8.6005488,37.2405053 8.41800213,37.9264934 C8.41800213,39.1542276 8.28385155,40.2620397 8.53941689,41.4532941 C8.68587876,41.7665172 9.00257601,41.8990186 9.33158455,41.9233385 C9.940781,45.41324 8.13738968,48.3509128 7.60121189,51.6005508 C7.46706132,55.6929982 5.82201862,59.4843823 6.51696956,63.63721 C6.2970645,64.7085423 6.68720495,65.7794552 6.63838432,66.8507875 C6.5895637,67.2726115 6.22404583,67.6453764 5.82201862,67.7778778 C4.79805914,67.5011344 3.79914676,67.1761706 2.81212114,66.814727 C1.92231224,66.7547659 0.789249287,66.1526395 0.0577890122,66.9115872 C-0.0517389918,67.2118118 0.0089683903,67.5967367 0.118920921,67.8864786 C0.569768752,68.8726913 1.61750175,69.294096 2.51962194,69.6794401 C2.86094177,69.7997816 3.22645964,69.8840625 3.56735494,70.0530437 C4.76197433,70.414068 6.00498982,70.774673 7.28451464,70.8589539 C8.73469938,71.2082376 10.5385152,71.0635763 12.1954447,71.0999347 C12.6462925,70.8711138 13.1336497,70.5218302 13.2801115,70.0287238 C13.5356769,69.2341349 13.1217629,68.511667 12.7193112,67.8864786 C12.1708221,66.8507875 11.3667677,66.0079782 11.3183716,64.768084 C10.9524292,64.0829345 11.4644089,63.2518658 10.8794105,62.6623186 C10.8182786,62.5897783 10.7087506,62.5298172 10.6480432,62.6623186 C10.6480432,63.2761857 10.6115339,63.8774735 10.7940806,64.4552802 C10.5746,64.9010047 10.5746,65.5869928 10.7940806,66.0683585 C11.3667677,67.2118118 12.5609626,68.0064007 12.7558205,69.3301565 C12.8776598,69.6676995 12.5732738,69.7519805 12.3661046,69.8840625 C11.8664361,70.0647843 11.5132296,69.70376 11.1107778,69.5590987 C10.9282311,69.3427357 10.5746,69.3301565 10.4404495,69.1016335 C10.355544,69.2580355 10.1237522,69.1255341 9.97771487,69.1255341 C9.721725,69.2580355 9.86818686,69.5469388 9.73403628,69.7398205 C9.42880126,69.7763003 9.16134916,69.6916001 8.893048,69.6194791 C8.41800213,69.4865584 7.93022043,69.3184158 7.51588194,69.1016335 C7.62583447,68.9573915 7.8202679,69.0295125 7.95484301,68.9330717 C8.14970097,68.1024223 7.25989207,67.6088966 7.36942007,66.814727 C6.73602557,64.5999415 7.61352318,62.2769744 7.28451464,59.9779079 C6.7725349,59.6646848 7.21107145,59.2919198 7.13805278,58.8461953 C7.24800531,58.7019533 7.01621349,58.5216508 7.22338273,58.4134693 C7.46706132,56.017962 7.93022043,53.5503336 8.74658614,51.2512671 C8.64936942,51.0583854 8.41800213,51.0944459 8.36875698,50.9263033 C8.52753013,49.313225 9.14903787,47.8687085 9.53917832,46.3407496 C9.57526313,45.979306 9.55106508,45.5943812 9.77054562,45.2933179 C11.1961078,44.7155113 9.86818686,42.9217111 10.9036086,42.0311007 L10.854788,41.9711396 C10.6357319,42.091481 10.5257794,42.3560645 10.355544,42.5489462 C10.2821008,42.6093266 10.1725728,42.7896291 10.0872429,42.6449678 C9.81894171,42.320004 9.97771487,41.8147377 10.0626203,41.4532941 C10.5257794,41.1044297 10.465072,40.4905626 11.0012498,40.2138192 C11.0742685,40.1056377 11.2572397,40.2377198 11.3183716,40.0695772 C11.0012498,39.4318096 11.8422381,39.1060072 12.1954447,38.6489613 L12.2807746,38.6489613 C12.3295953,39.214608 12.4879439,40.0091969 11.9029455,40.3337414 C12.2561521,41.1404902 11.6834649,41.9233385 11.379079,42.6449678 C11.3302584,42.9581909 11.1107778,43.3435351 11.293749,43.6198592 C11.7080875,43.5837987 12.1101147,43.7766804 12.4879439,43.9091818 C12.7558205,44.2576268 13.170159,44.2702061 13.451196,44.6069105 C12.7923299,46.4493504 12.841575,48.4708349 12.4026139,50.4080385 L12.4879439,50.5531191 C12.7193112,50.2881164 12.6462925,49.9027722 12.7804431,49.6025476 C12.8046411,49.5061067 12.9145937,49.4700462 13.0118104,49.4822061 C13.2194042,49.7585302 13.2436022,50.1078139 13.3043096,50.4449376 C13.5602995,51.2030467 13.7551574,51.985895 13.9258173,52.7800646 C14.5227025,54.5256443 14.9251542,56.3668263 16.3146316,57.7513818 C16.4487822,57.8956238 16.6194421,58.0394465 16.7896775,58.0038053 C16.2776977,57.1857351 15.9121799,56.294286 15.4129359,55.4644752 C14.717985,54.0321187 14.3036465,52.4790013 13.803978,50.9627831 C13.7067613,49.6985691 12.8169524,48.2544719 13.77978,47.0632175 C13.8162893,46.7135146 13.9869492,46.2803693 13.6333181,46.0153665 C13.77978,44.8115329 14.4377971,43.8131602 14.8886449,42.7300873 C14.9862862,42.320004 15.461332,42.5128857 15.5831713,42.1153816 C15.6077939,41.6822363 15.8272744,41.2130305 15.5589733,40.8155264 C15.5343507,40.5870035 15.546662,40.2498797 15.8272744,40.1538582 C16.2776977,39.9731364 16.7162343,40.0335167 17.1675066,39.9488165 C17.9108537,39.9370759 18.5081634,39.3714292 18.7518419,38.7093417 C18.8125493,38.2518765 18.8006626,37.793992 18.4228334,37.445547 C18.0331175,37.3004663 17.837835,36.80736 17.7278825,36.4341757 C17.6913731,36.0853114 18.1057116,36.0731514 18.1668435,35.7603476 C17.947363,34.9900785 18.6176914,34.0868888 18.0208062,33.3644209 C18.2398622,31.8846825 18.4958521,30.3437252 18.8006626,28.8631482 C18.8125493,28.3457219 19.1296711,27.8521963 19.0927372,27.33477 C19.0808505,27.1662082 19.3126423,27.0337068 19.190803,26.9012054 L19.4221703,25.6252508 C19.6051415,24.6264588 19.7630656,23.6029277 19.7999995,22.5320147 L19.7999995,22.5320147 Z" id="Fill-79"></path>
                    </g>
                </g>
            </g>
        </g>
    </g>
</svg>