<?xml version="1.0" encoding="UTF-8"?>
<svg width="118px" height="41px" viewBox="0 0 118 41" version="1.1" xmlns="http://www.w3.org/2000/svg" xmlns:xlink="http://www.w3.org/1999/xlink">
    <!-- Generator: Sketch 60.1 (88133) - https://sketch.com -->
    <title>logo / Jolliebean</title>
    <desc>Created with Sketch.</desc>
    <g id="Supplier" stroke="none" stroke-width="1" fill="none" fill-rule="evenodd" opacity="0.5">
        <g id="Supplier_1280" transform="translate(-372.000000, -1418.000000)">
            <g id="Testimonails-bg-" transform="translate(148.000000, 1283.000000)">
                <g id="Image-/-logo-bottom-/-Joliebean" transform="translate(212.000000, 108.000000)">
                    <g id="jollibean-vector-logo" transform="translate(12.000000, 27.000000)">
                        <path d="M3.56742147,32.1067932 C3.54792736,31.8143816 3.56742147,31.6389347 3.60640968,31.5414641 L3.87932717,31.3465231 L4.24971519,31.2685466 L4.60060911,31.3855113 C4.69807964,31.4634877 4.77605607,31.6389347 4.81504428,31.9313463 C4.85403249,32.2237579 4.8735266,32.4771812 4.8735266,32.6721223 C4.8735266,32.8865575 4.8930207,33.0035221 4.95150302,33.0425103 C4.99049124,33.0814985 5.08796177,32.984028 5.20492641,32.7695928 C5.32189104,32.5551577 5.4778439,32.2822402 5.63379675,31.9508404 C5.7897496,31.6194406 5.90671424,31.3855113 6.02367887,31.2685466 L6.3940669,30.9566409 L6.76445492,30.8396763 L7.03737241,30.8981586 C7.11534883,30.9371468 7.23231347,31.1125938 7.34927811,31.4439936 C7.46624275,31.7558993 7.60270149,32.2822402 7.75865434,33.0035221 C7.91460719,33.7248041 8.03157183,34.0951921 8.10954826,34.1536744 L8.30448932,34.0951921 C8.34347753,34.0172156 8.49943039,33.5883453 8.73335966,32.7890869 C8.98678305,32.0093227 9.29868875,30.9761351 9.66907677,29.7285122 C10.0394648,28.4808894 10.3123823,27.7596075 10.4683351,27.5841605 L10.8972055,27.2332666 L11.2870876,27.1552902 C11.4430405,27.1747843 11.540511,27.2722548 11.5989933,27.48669 C11.6574756,27.7011252 11.6574756,27.857078 11.5989933,27.9935368 C11.540511,28.1299955 11.365064,28.6368423 11.0726524,29.5335712 C10.7802408,30.4303001 10.3513705,31.7753934 9.7665473,33.5883453 C9.18172411,35.4012972 8.81133609,36.3565084 8.65538324,36.4344848 C8.49943039,36.5124613 8.30448932,36.5514495 8.07056004,36.5514495 C7.83663077,36.5319554 7.66118381,36.4734731 7.54421917,36.3370143 C7.42725453,36.2200497 7.329784,36.0251086 7.23231347,35.7716852 C7.13484294,35.5182618 7.0178783,35.0504033 6.84243134,34.3486155 C6.66698438,33.6468276 6.56951385,33.2569455 6.51103153,33.2179573 C6.47204332,33.159475 6.35507868,33.2569455 6.17963173,33.5103689 C6.00418477,33.7637923 5.77025549,34.2511449 5.43885568,34.991921 C5.10745587,35.732697 4.8930207,36.103085 4.73706785,36.1420732 L4.30819751,36.1225791 L3.9767977,35.8886499 C3.89882128,35.7911793 3.76236253,34.7579917 3.60640968,32.7890869 C3.60640968,32.61364 3.60640968,32.3992048 3.56742147,32.1067932" id="Path" fill="#000000" fill-rule="nonzero"></path>
                        <path d="M11.2870876,34.9139445 C11.2091112,34.5825447 11.170123,34.2511449 11.170123,33.9392392 C11.170123,33.6273335 11.2480994,33.3154278 11.4040522,33.0035221 C11.5600051,32.6721223 11.7939344,32.438193 12.1253342,32.3017343 C12.4372399,32.1652755 12.7491456,32.1067932 13.002569,32.1262873 C13.2754865,32.1652755 13.5094157,32.2627461 13.7043568,32.4576871 C13.8992979,32.6526282 14.0357566,32.8670634 14.113733,33.1009926 C14.1917095,33.3349219 14.2306977,33.5883453 14.2306977,33.8612628 C14.2306977,34.1341803 14.1722153,34.3291214 14.0357566,34.446086 C13.918792,34.5630506 13.743345,34.6410271 13.5094157,34.6800153 C13.2754865,34.7190035 13.1000395,34.7384976 12.9635807,34.6995094 L12.651675,34.6800153 L12.5542045,34.7969799 C12.5542045,34.8749563 12.6906633,34.991921 12.9050984,35.1478738 C13.1390277,35.2843326 13.3534629,35.362309 13.5484039,35.3818031 L14.0942389,35.4207913 L14.5036152,35.5572501 L14.6985562,35.8886499 L14.484121,36.2395438 C14.3476623,36.3370143 14.1332271,36.4149907 13.8603096,36.4344848 C13.5873922,36.4539789 13.2754865,36.4149907 12.9245925,36.3370143 C12.5736986,36.2590379 12.2617929,36.1225791 11.9693813,35.9666263 C11.735452,35.7716852 11.4820287,35.4402854 11.2870876,34.9139445 M12.5152163,33.6078394 C12.7881338,33.6663217 12.9635807,33.6858158 13.0415572,33.6468276 L13.1390277,33.4518866 L13.002569,33.2179573 L12.7296515,33.1204868 L12.4762281,33.1789691 L12.3982517,33.354416 L12.5152163,33.6078394" id="Shape" fill="#000000" fill-rule="nonzero"></path>
                        <path d="M16.1996024,27.9350545 C16.1411201,28.5198776 16.0826378,28.9097598 16.0241555,29.1047008 L15.751238,29.4750889 L15.3223676,29.4361006 L15.0689442,29.0852067 C15.0494501,28.9097598 15.0494501,28.6173482 15.0689442,28.1689837 C15.0689442,27.7206193 15.1469207,27.4477018 15.2833794,27.3307372 L15.7317439,27.1942784 L16.0241555,27.2917489 L16.1021319,27.4477018 C16.1606142,27.5256782 16.1801083,27.7011252 16.1996024,27.9350545" id="Path" fill="#000000" fill-rule="nonzero"></path>
                        <path d="M19.1042243,34.0172156 C19.8839885,32.7890869 20.332353,32.1067932 20.4103294,31.9703345 L20.6052705,31.5414641 L20.9366703,31.2490525 L21.3655406,31.2490525 L21.7164345,31.5804523 L21.8333992,32.0093227 L21.5214935,32.3602166 C21.3460465,32.4771812 21.1121172,32.8085811 20.8197056,33.3934042 C20.527294,33.9587333 20.2153883,34.5435565 19.9034826,35.1673679 C19.5915769,35.7716852 19.3576476,36.1615674 19.2016948,36.3175202 L18.7728245,36.5904377 L18.3049659,36.5514495 C18.149013,36.4929672 17.8371073,35.9666263 17.408237,34.9529328 C16.9598726,33.9392392 16.7064492,33.354416 16.6089786,33.1984632 C16.5115081,33.0620044 16.492014,32.8865575 16.5310022,32.6526282 C16.5699904,32.438193 16.667461,32.2822402 16.8039197,32.2042638 L17.2132959,32.1262873 L17.5641899,32.4771812 C17.6616604,32.6721223 17.7591309,32.9645339 17.8760956,33.354416 C17.9735661,33.7442982 18.0905307,34.0562039 18.2269895,34.3096272 C18.3439541,34.5630506 18.4414246,34.6995094 18.499907,34.7190035 L18.7338362,34.5825447 C18.8118127,34.4070978 18.9287773,34.2316508 19.1042243,34.0172156" id="Path" fill="#000000" fill-rule="nonzero"></path>
                        <path d="M22.4182223,34.9139445 C22.3402459,34.5825447 22.3012577,34.2511449 22.3012577,33.9392392 C22.3012577,33.6273335 22.3792341,33.3154278 22.535187,33.0035221 C22.6911398,32.6721223 22.9250691,32.438193 23.2564689,32.3017343 C23.5683746,32.1652755 23.8802803,32.1067932 24.1337037,32.1262873 C24.4066212,32.1652755 24.6405505,32.2627461 24.8354915,32.4576871 C25.0304326,32.6526282 25.1668913,32.8670634 25.2643619,33.1009926 C25.3423383,33.3349219 25.3813265,33.5883453 25.3813265,33.8612628 C25.3813265,34.1341803 25.3228442,34.3291214 25.1863855,34.446086 C25.0694208,34.5630506 24.8939739,34.6410271 24.6600446,34.6800153 C24.4261153,34.7190035 24.2506683,34.7384976 24.1142096,34.6995094 L23.8023039,34.6800153 L23.7048334,34.7969799 C23.7048334,34.8749563 23.8412921,34.991921 24.0557273,35.1478738 C24.2701625,35.2843326 24.5040917,35.362309 24.6990328,35.3818031 L25.2448678,35.4207913 L25.654244,35.5572501 L25.8491851,35.8886499 L25.654244,36.2395438 C25.5177853,36.3370143 25.3033501,36.4149907 25.0304326,36.4344848 C24.7575151,36.4539789 24.4456094,36.4149907 24.0947155,36.3370143 C23.7438216,36.2590379 23.4319159,36.1225791 23.1395043,35.9666263 C22.8665868,35.7716852 22.6326575,35.4402854 22.4182223,34.9139445 M23.6658452,33.6078394 C23.9387626,33.6663217 24.1142096,33.6858158 24.192186,33.6468276 L24.2896566,33.4518866 L24.1531978,33.2179573 L23.8802803,33.1204868 L23.6268569,33.1789691 L23.5488805,33.354416 L23.6658452,33.6078394" id="Shape" fill="#000000" fill-rule="nonzero"></path>
                        <path d="M30.2548531,35.4792736 C29.5530653,33.354416 29.1241949,31.9898286 28.948748,31.4244995 C28.7927951,30.8591704 28.7343128,30.5082765 28.773301,30.3913119 L28.9877362,30.0794062 L29.3581242,30.0599121 L29.7480063,30.4303001 C29.8454769,30.605747 30.0599121,31.1905702 30.3718178,32.2042638 C30.6837235,33.2179573 30.8981586,33.8222746 30.9566409,34.0367098 C31.0346174,34.2511449 31.151582,34.1926626 31.3075349,33.8612628 C31.4634877,33.529863 31.6389347,33.2374514 31.8728639,32.984028 C32.0872991,32.7306046 32.3212284,32.5941459 32.5356636,32.5551577 C32.7500987,32.5161695 32.9450398,32.4966754 33.1204868,32.5161695 C33.2764396,32.5356636 33.4713807,32.7111105 33.6858158,33.0425103 C33.900251,33.3739101 34.0562039,33.7637923 34.1341803,34.2121567 C34.2316508,34.6605212 34.2316508,35.0309092 34.1341803,35.362309 C34.0367098,35.6937088 33.9197451,35.908144 33.7442982,36.0056145 C33.5688512,36.103085 33.3349219,36.1615674 33.0230162,36.1810615 C32.7111105,36.2005556 32.4771812,36.1615674 32.3212284,36.103085 L31.9313463,36.1810615 L31.7169111,36.6099318 L31.5804523,36.9803198 L31.2295584,37.0388021 C31.0736056,37.019308 30.8786645,36.824367 30.6642293,36.4734731 C30.4303001,36.1225791 30.3133354,35.7911793 30.2548531,35.4792736 M32.1457814,34.5825447 L32.1652755,34.9139445 L32.3797107,35.1088856 L32.7306046,35.2258502 L33.0230162,35.1283797 L33.1399809,34.8359681 L33.1204868,34.4265919 L32.9255457,33.9587333 L32.61364,33.7248041 L32.3602166,33.8807569 C32.2627461,33.9977215 32.2042638,34.2316508 32.1457814,34.5825447" id="Shape" fill="#000000" fill-rule="nonzero"></path>
                        <path d="M35.0114151,34.816474 C34.8554622,34.4655801 34.7384976,34.1536744 34.6995094,33.8027805 C34.6410271,33.4713807 34.6605212,33.1204868 34.7579917,32.7500987 C34.8749563,32.3797107 35.0698974,32.0872991 35.3818031,31.8728639 C35.6937088,31.6584288 36.0056145,31.5414641 36.2980261,31.52197 C36.5904377,31.5024759 36.8633552,31.5804523 37.1167786,31.7364052 C37.3702019,31.8923581 37.5456489,32.1067932 37.6821076,32.3407225 C37.8185664,32.5746518 37.9160369,32.8475693 37.9745192,33.1204868 C38.0330016,33.4128984 37.9940134,33.6273335 37.8965428,33.7637923 C37.7795782,33.900251 37.6041312,34.0367098 37.3702019,34.1146862 C37.1362727,34.1926626 36.9413316,34.2511449 36.7853788,34.2511449 L36.4539789,34.270639 L36.3760025,34.4265919 C36.3954966,34.5240624 36.5514495,34.6215329 36.824367,34.7190035 C37.0972845,34.8359681 37.3507078,34.8749563 37.5456489,34.8359681 C37.7600841,34.816474 37.9550251,34.7774858 38.1304721,34.7579917 L38.5983306,34.8359681 L38.851754,35.1478738 L38.6958012,35.5767442 C38.5593424,35.7132029 38.3449073,35.8301675 38.0719898,35.8886499 C37.7795782,35.9666263 37.4481784,35.9861204 37.0582962,35.9666263 C36.6684141,35.9471322 36.2980261,35.8691558 35.9666263,35.7521911 C35.6547206,35.6547206 35.3233208,35.3428149 35.0114151,34.816474 M36.0835909,33.1789691 C36.3760025,33.1984632 36.5709436,33.1789691 36.64892,33.1399809 L36.7074023,32.9060516 L36.5124613,32.6916164 L36.2005556,32.6526282 L35.9471322,32.7695928 L35.8886499,32.9645339 L36.0835909,33.1789691" id="Shape" fill="#000000" fill-rule="nonzero"></path>
                        <path d="M40.4307767,30.5667588 C40.6647059,30.3718178 40.9181293,30.2548531 41.1520586,30.2158649 C41.405482,30.1768767 41.6589054,30.1768767 41.9123287,30.1963708 C42.1852462,30.2158649 42.4971519,30.4303001 42.8675399,30.8396763 C43.237928,31.2295584 43.5888219,31.8533698 43.9007276,32.6916164 C44.2126333,33.529863 44.3880802,34.075698 44.4465626,34.3486155 C44.4855508,34.6215329 44.4660567,34.816474 44.349092,34.9334386 L43.9007276,35.0698974 C43.7252806,35.0309092 43.5303396,34.8359681 43.3159044,34.4850742 C43.1014692,34.1341803 42.9650105,33.8612628 42.9260223,33.6663217 C42.8870341,33.4713807 42.7310812,33.529863 42.4776578,33.8612628 C42.2242344,34.1731685 41.8928346,34.446086 41.4639643,34.6215329 C41.0350939,34.816474 40.7231882,34.9139445 40.5282472,34.9529328 C40.3333061,34.9724269 40.0993768,34.9139445 39.8654476,34.7579917 C39.6120242,34.6020388 39.4560713,34.4070978 39.3780949,34.1731685 C39.3001185,33.9392392 39.2611303,33.5883453 39.2416362,33.1009926 C39.2221421,32.6331341 39.3780949,32.067805 39.7289888,31.4634877 C39.9629181,31.0736056 40.1968474,30.781194 40.4307767,30.5667588 M40.1578592,32.7500987 L40.1383651,33.2764396 L40.3722943,33.6468276 L40.859647,33.7248041 L41.405482,33.4713807 C41.5809289,33.3349219 41.7368818,33.1009926 41.8733405,32.8280752 C42.0097993,32.5356636 42.0682816,32.3212284 42.0682816,32.1652755 C42.0682816,32.0093227 42.0682816,31.8338757 42.0292934,31.6194406 C41.9903052,31.4050054 41.8928346,31.2880408 41.7563759,31.2685466 C41.6199171,31.2490525 41.4444702,31.2685466 41.230035,31.3660172 C41.0350939,31.4439936 40.8011647,31.6584288 40.5477413,31.9703345 C40.3333061,32.3017343 40.1968474,32.5551577 40.1578592,32.7500987" id="Shape" fill="#000000" fill-rule="nonzero"></path>
                        <path d="M44.8754329,32.5551577 C45.0898681,31.5999465 45.3237974,30.9371468 45.5772207,30.5667588 C45.8306441,30.1963708 46.0060911,29.9429474 46.1035616,29.8259828 C46.2010321,29.7090181 46.3764791,29.6115476 46.6104084,29.5140771 C46.8638318,29.4361006 47.0782669,29.3971124 47.273208,29.3776183 C47.4681491,29.3581242 47.7410665,29.5530653 48.0724664,29.9624415 C48.4038662,30.3523236 48.6377954,30.6837235 48.7742542,30.9566409 C48.9107129,31.2295584 49.0276776,31.5999465 49.105654,32.0483109 C49.1836304,32.4966754 49.2031245,32.7890869 49.1641363,32.8865575 C49.1251481,32.984028 49.0081835,33.0620044 48.7937483,33.1009926 C48.5793131,33.1399809 48.4233603,33.1204868 48.2869015,33.0425103 C48.1504428,32.9450398 48.0334781,32.7111105 47.9165135,32.3407225 C47.7995489,31.9703345 47.643596,31.6389347 47.4876432,31.3660172 C47.3121962,31.0930997 47.1562434,30.9566409 47.0392787,30.9566409 C46.9223141,30.9566409 46.7468671,31.0346174 46.5129378,31.2100643 C46.2985027,31.3855113 46.1620439,31.6779229 46.1230557,32.1262873 C46.1035616,32.5746518 46.0840675,32.8670634 46.0840675,33.0230162 L46.0255852,33.4128984 L45.6746913,33.6273335 L45.1678445,33.5883453 L44.8754329,33.2569455 C44.7974565,33.0620044 44.8169506,32.8280752 44.8754329,32.5551577" id="Path" fill="#000000" fill-rule="nonzero"></path>
                        <path d="M52.7510519,33.4908748 L52.5561108,33.0425103 L52.5171226,32.6916164 L52.6340872,32.3017343 C52.7120637,32.1652755 52.8875106,31.9313463 53.1799222,31.6194406 C53.4723338,31.2880408 53.7062631,31.1125938 53.9012042,31.0346174 L54.4470391,30.9566409 L54.8564154,31.2295584 L54.9148977,31.7169111 L54.6614743,32.067805 L54.2520981,32.3017343 L53.9206983,32.5356636 L53.8232277,32.7500987 L53.9206983,32.9255457 C53.9986747,32.984028 54.2520981,33.1204868 54.6809684,33.3739101 C55.1098388,33.6273335 55.3827563,33.8222746 55.4997209,33.9587333 C55.5971914,34.0951921 55.6556737,34.2901331 55.6361796,34.5630506 C55.6166855,34.8359681 55.5582032,35.0893915 55.4217445,35.3233208 C55.3047798,35.5572501 55.1293329,35.7521911 54.8954036,35.8886499 C54.6809684,36.0251086 54.3300745,36.1420732 53.9206983,36.2005556 C53.4918279,36.2590379 53.1604281,36.2005556 52.9264988,36.0251086 C52.6730755,35.8496616 52.5171226,35.6547206 52.4196521,35.4597795 C52.3221815,35.2648385 52.2831933,35.0698974 52.3026874,34.8749563 L52.5756049,34.3681096 L53.0044753,34.2511449 L53.2578987,34.6215329 L53.5503102,34.9724269 C53.686769,35.0309092 53.862216,35.0309092 54.0766511,34.991921 C54.2910863,34.9529328 54.4080509,34.8944504 54.427545,34.7969799 L54.3885568,34.5825447 C54.3300745,34.5240624 54.0376629,34.3681096 53.5503102,34.1341803 C53.1019458,33.8807569 52.8290283,33.6663217 52.7510519,33.4908748" id="Path" fill="#000000" fill-rule="nonzero"></path>
                        <path d="M56.6693673,35.7132029 C56.5913908,33.7637923 56.4939203,32.6331341 56.3964498,32.3602166 C56.2989793,32.067805 56.259991,31.8533698 56.259991,31.7169111 L56.3769557,31.3660172 L56.7278496,31.151582 L57.1372258,31.1710761 L57.4296374,31.3855113 L57.5660962,31.5999465 L57.6050844,31.7364052 L57.8780019,31.6584288 C58.0534488,31.5804523 58.3848486,31.5414641 58.9111895,31.5414641 C59.4375304,31.5414641 59.9053889,31.6194406 60.275777,31.7753934 C60.6656591,31.9313463 60.9385766,32.1262873 61.1530117,32.3602166 C61.3479528,32.5746518 61.4649174,32.8280752 61.5233998,33.0620044 C61.5818821,33.3154278 61.5818821,33.529863 61.5233998,33.7053099 C61.4649174,33.8807569 61.3089646,34.1341803 61.0360471,34.4265919 C60.7631296,34.7384976 60.3732475,34.991921 59.8858948,35.1673679 C59.3985422,35.3428149 58.9501777,35.4402854 58.5213074,35.4792736 C58.092437,35.4987677 57.8585078,35.5572501 57.7805313,35.5962383 C57.722049,35.6547206 57.722049,35.8691558 57.7610372,36.2395438 C57.8195195,36.6099318 57.8780019,37.019308 57.9559783,37.4676725 C58.0339547,37.9160369 58.0534488,38.2279426 58.0339547,38.3838955 L57.8390137,38.6958012 C57.7415431,38.7347894 57.5855903,38.7542835 57.351661,38.7542835 C57.1177317,38.7542835 56.9422848,38.656813 56.8643083,38.4423778 C56.7668378,38.2279426 56.7083555,37.8185664 56.6888614,37.2142491 C56.6693673,36.6099318 56.6693673,36.1225791 56.6693673,35.7132029 M58.2288958,34.3486155 C58.8916954,34.3486155 59.3400598,34.3096272 59.5934832,34.1926626 C59.8469066,34.0951921 60.0223536,33.9782274 60.1198241,33.8417687 L60.2952711,33.4518866 L60.1783064,33.0230162 C60.10033,32.8475693 59.9053889,32.7111105 59.6324714,32.61364 C59.359554,32.4966754 59.0866365,32.438193 58.813719,32.438193 C58.5408015,32.438193 58.3068722,32.4771812 58.092437,32.5551577 C57.8780019,32.6331341 57.7610372,32.6916164 57.7415431,32.7306046 C57.7025549,32.7695928 57.6830608,32.9255457 57.6830608,33.1984632 L57.6830608,33.9197451 C57.6830608,34.1341803 57.7025549,34.2511449 57.7415431,34.3291214 C57.8000254,34.3876037 57.9559783,34.3876037 58.2288958,34.3486155" id="Shape" fill="#000000" fill-rule="nonzero"></path>
                        <path d="M62.7710226,35.0698974 C62.6540579,34.4655801 62.5175992,34.0562039 62.4201287,33.8027805 C62.303164,33.5688512 62.2836699,33.3154278 62.3421522,33.0620044 C62.4006346,32.8085811 62.4981051,32.6526282 62.6150697,32.5941459 L62.9854577,32.5551577 L63.3168576,32.6721223 L63.589775,32.6331341 C63.6872456,32.5746518 63.8821866,32.3992048 64.1551041,32.1067932 C64.4280216,31.8143816 64.681445,31.5999465 64.9348684,31.4634877 C65.1882918,31.327029 65.3832328,31.2880408 65.5196916,31.3075349 L65.9095737,31.5414641 L66.1045148,31.9118522 L65.9290678,32.3602166 L65.5196916,32.61364 C65.3442446,32.61364 65.1493036,32.6916164 64.8763861,32.8475693 C64.6229627,33.0230162 64.4085275,33.2569455 64.2330806,33.5883453 C64.0576336,33.900251 63.9796572,34.2511449 63.9796572,34.6215329 L63.9796572,35.5767442 C63.9796572,35.8496616 63.9211748,36.0251086 63.8237043,36.1420732 L63.3753399,36.3175202 L62.9659636,36.2590379 L62.8295049,35.9861204 L62.8295049,35.5767442 L62.7710226,35.0698974" id="Path" fill="#000000" fill-rule="nonzero"></path>
                        <path d="M66.6113615,34.9139445 C66.5333851,34.5825447 66.4943969,34.2511449 66.4943969,33.9392392 C66.4943969,33.6273335 66.5723733,33.3154278 66.7283262,33.0035221 C66.884279,32.6721223 67.1182083,32.438193 67.4496081,32.3017343 C67.7615138,32.1652755 68.0734195,32.1067932 68.3268429,32.1262873 C68.5997604,32.1652755 68.8336897,32.2627461 69.0286307,32.4576871 C69.2235718,32.6526282 69.3600305,32.8670634 69.4575011,33.1009926 C69.5354775,33.3349219 69.5744657,33.5883453 69.5744657,33.8612628 C69.5744657,34.1341803 69.5159834,34.3291214 69.3990187,34.446086 C69.2820541,34.5630506 69.1066071,34.6410271 68.8726779,34.6800153 C68.6582427,34.7190035 68.4633016,34.7384976 68.3268429,34.6995094 L68.0149372,34.6800153 L67.9174667,34.7969799 C67.9369608,34.8749563 68.0539254,34.991921 68.2878547,35.1478738 C68.521784,35.2843326 68.7362191,35.362309 68.9311602,35.3818031 L69.4769952,35.4207913 L69.8863714,35.5572501 L70.0813125,35.8886499 L69.8863714,36.2395438 C69.7304186,36.3370143 69.5354775,36.4149907 69.26256,36.4344848 C68.9896425,36.4539789 68.6777368,36.4149907 68.3268429,36.3370143 C67.975949,36.2590379 67.6640433,36.1225791 67.3911258,35.9666263 C67.059726,35.7716852 66.8257967,35.4402854 66.6113615,34.9139445 M67.8589843,33.6078394 C68.1319018,33.6663217 68.3073488,33.6858158 68.3853252,33.6468276 L68.4827957,33.4518866 L68.346337,33.2179573 L68.0734195,33.1204868 L67.8199961,33.1789691 L67.7420197,33.354416 L67.8589843,33.6078394" id="Shape" fill="#000000" fill-rule="nonzero"></path>
                        <path d="M72.2256642,31.9508404 C72.4790876,31.8143816 72.7130168,31.7364052 72.9469461,31.7558993 C73.1808754,31.7753934 73.4148047,31.8143816 73.6487339,31.8728639 C73.8826632,31.9313463 74.1360866,32.1847696 74.4090041,32.5941459 C74.6819216,33.0230162 74.8768626,33.6468276 75.0328155,34.446086 C75.1692742,35.2648385 75.2472507,35.7911793 75.2472507,36.0446027 C75.2472507,36.2980261 75.1887683,36.4539789 75.0523096,36.5514495 L74.6234393,36.5904377 C74.4674864,36.5124613 74.3310277,36.3175202 74.1945689,35.9666263 C74.0581102,35.6157324 73.9801337,35.3428149 73.9801337,35.1673679 C73.9606396,34.9724269 73.8241809,35.0114151 73.5512634,35.2648385 C73.2588518,35.5182618 72.927452,35.6937088 72.4985817,35.7911793 C72.0892054,35.8886499 71.7772997,35.9471322 71.6018528,35.9276381 L71.0170296,35.6547206 C70.8220885,35.4792736 70.7051239,35.2648385 70.6661357,35.0504033 C70.6271474,34.816474 70.6466416,34.4850742 70.7051239,34.0562039 C70.7636062,33.6273335 70.9975355,33.159475 71.4264058,32.6526282 C71.7188174,32.3407225 71.9722408,32.1067932 72.2256642,31.9508404 M71.6213469,33.8807569 L71.5043822,34.3681096 L71.6603351,34.7384976 L72.0892054,34.8944504 L72.6350404,34.7579917 C72.8299815,34.6605212 73.0054284,34.4850742 73.1613813,34.2511449 C73.3173341,34.0172156 73.4148047,33.8417687 73.4537929,33.6858158 L73.4927811,33.1984632 L73.29784,32.8475693 L72.8104874,32.8475693 C72.6155463,32.8865575 72.381617,33.0425103 72.0892054,33.2764396 C71.8552761,33.5103689 71.6993233,33.7248041 71.6213469,33.8807569" id="Shape" fill="#000000" fill-rule="nonzero"></path>
                        <path d="M78.6392252,32.8670634 C78.5222605,30.9566409 78.42479,29.7480063 78.3468136,29.2411596 C78.2883313,28.7343128 78.2688372,28.4224071 78.3078254,28.2859484 L78.5417546,28.0130309 L78.9511309,27.9545486 C79.0875896,27.9740427 79.2240484,28.1105014 79.3215189,28.3249366 C79.4189894,28.5588659 79.4969659,29.0267244 79.51646,29.7480063 C79.5359541,30.4692883 79.5944364,31.697417 79.6724128,33.4323925 C79.7503892,35.1673679 79.8088716,36.1615674 79.8478598,36.3565084 C79.886848,36.5709436 79.8478598,36.7463905 79.7308951,36.9218375 L79.3020248,37.194755 L78.8926486,36.9803198 L78.6977075,36.4539789 C78.6782134,36.2590379 78.6782134,36.103085 78.6587193,35.9666263 L78.5807429,35.7716852 L78.3078254,35.9666263 C78.1713666,36.103085 77.9959197,36.2005556 77.7619904,36.2590379 C77.5280611,36.3175202 77.2551436,36.3175202 76.9237438,36.2395438 C76.592344,36.1615674 76.3194265,35.9861204 76.1244854,35.732697 C75.9295444,35.4597795 75.8320739,35.186862 75.8320739,34.9139445 C75.8320739,34.6410271 75.9295444,34.3291214 76.1244854,33.9782274 C76.3194265,33.6273335 76.5728499,33.3934042 76.8847556,33.2374514 C77.1966613,33.0814985 77.4890729,33.0035221 77.7424963,32.984028 C77.9959197,32.984028 78.1908607,32.984028 78.3078254,33.0230162 L78.5222605,33.0814985 L78.6392252,32.8670634 M77.0796967,35.1088856 C77.2746377,35.1478738 77.4695788,35.1673679 77.6060375,35.1673679 L77.9764256,34.9139445 L78.0738961,34.4850742 L77.8399668,34.2316508 L77.3526142,34.1926626 L76.8847556,34.3876037 L76.7093086,34.6995094 L76.7482969,34.9334386 L77.0796967,35.1088856" id="Shape" fill="#000000" fill-rule="nonzero"></path>
                        <path d="M80.9785179,35.2258502 C80.8810474,34.5045683 80.7640828,34.075698 80.627624,33.9197451 L80.5106594,33.4908748 L80.7445887,33.1984632 L81.1149767,33.1204868 C81.2514354,33.1204868 81.4268824,33.2569455 81.6023293,33.529863 C81.7972704,33.8027805 81.914235,34.075698 81.9532233,34.3096272 C82.0117056,34.5435565 82.0311997,34.816474 82.0311997,35.1088856 C82.0311997,35.4012972 82.0117056,35.6547206 81.9532233,35.8886499 C81.8947409,36.1225791 81.7972704,36.2395438 81.6413176,36.278532 L81.173459,36.2005556 L80.9395297,35.8886499 L80.9395297,35.5377559 L80.9395297,35.2258502 L80.9785179,35.2258502 Z M80.9590238,31.8923581 C81.2709295,31.9118522 81.4658706,31.8728639 81.543847,31.7753934 L81.7387881,31.4244995 L81.7387881,30.9566409 L81.5048588,30.6252411 L81.1539649,30.5472647 L80.7250946,30.781194 L80.5301535,31.2685466 L80.6666122,31.6194406 L80.9590238,31.8923581" id="Shape" fill="#000000" fill-rule="nonzero"></path>
                        <path d="M82.7719757,34.4850742 C83.1228696,33.6468276 83.4542695,33.0814985 83.7271869,32.7890869 C84.0195985,32.4966754 84.2145396,32.3017343 84.3120101,32.2042638 C84.4094807,32.1067932 84.5849276,32.0483109 84.8188569,32.0093227 C85.0527862,31.9703345 85.2672213,31.9703345 85.4426683,31.9898286 C85.6181153,32.0093227 85.8325504,32.2237579 86.0664797,32.6526282 C86.300409,33.0620044 86.4758559,33.4128984 86.5538324,33.6858158 C86.6318088,33.9587333 86.6902911,34.3096272 86.6902911,34.7190035 C86.6902911,35.1478738 86.670797,35.4012972 86.6123147,35.4792736 L86.2419267,35.6157324 L85.7935622,35.4792736 C85.6960917,35.3818031 85.6181153,35.1478738 85.579127,34.7774858 C85.5401388,34.4070978 85.4621624,34.0951921 85.3451978,33.8222746 C85.2282331,33.5493571 85.1307626,33.3934042 85.013798,33.3739101 C84.8968333,33.354416 84.7213864,33.3934042 84.4874571,33.5103689 C84.2535278,33.6273335 84.097575,33.8807569 84.0001044,34.270639 C83.9026339,34.6605212 83.8441516,34.9334386 83.8051634,35.0893915 L83.6687046,35.4402854 L83.3178107,35.5767442 L82.8694463,35.4597795 L82.6550111,35.0893915 C82.635517,34.9334386 82.6745052,34.7190035 82.7719757,34.4850742" id="Path" fill="#000000" fill-rule="nonzero"></path>
                        <path d="M89.4779483,31.9508404 L89.7313717,31.7558993 L90.0237833,31.6584288 L90.335689,31.9313463 C90.4721478,32.1262873 90.6086065,32.4576871 90.7645593,32.9255457 C90.9010181,33.3934042 91.1349474,34.1536744 91.4663472,35.1673679 C91.7782529,36.1810615 91.9731939,36.9803198 92.0121822,37.5456489 C92.0511704,38.110978 92.0316763,38.5788365 91.9147116,38.9297305 C91.8172411,39.2806244 91.6807823,39.5340478 91.5638177,39.6900006 C91.427359,39.8459535 91.251912,39.9629181 91.0374768,40.0214004 C90.8230417,40.0798827 90.5891124,40.0993768 90.3161949,40.0408945 C90.0627715,40.0019063 89.7313717,39.9044358 89.3609837,39.7289888 C88.9711016,39.5535419 88.6591959,39.3196126 88.4252666,39.0077069 C88.1913373,38.6958012 88.0938668,38.4228837 88.1523491,38.1889544 C88.2108314,37.9550251 88.3083019,37.8185664 88.4447607,37.7600841 L88.8541369,37.74059 L89.1075603,38.0330016 C89.1465485,38.1694603 89.2830073,38.3254132 89.4974424,38.4618719 C89.7118776,38.6178248 89.9458069,38.7347894 90.1992303,38.8127658 C90.4526536,38.9102364 90.6281006,38.9297305 90.7255711,38.8907422 L90.9205122,38.7152953 C90.9400063,38.6373189 90.9595004,38.481366 90.9595004,38.2474367 C90.9595004,38.0135075 90.9400063,37.6626135 90.9205122,37.2337432 C90.9010181,36.8048729 90.7840535,36.2980261 90.5891124,35.7521911 C90.3941713,35.2063561 90.2772067,34.8944504 90.1992303,34.8359681 L89.9847951,34.7384976 L89.6533953,34.9529328 C89.4974424,35.1088856 89.2830073,35.2258502 89.0295839,35.3038267 C88.7761605,35.4012972 88.503243,35.4207913 88.2498196,35.3818031 C87.9963962,35.3428149 87.762467,35.2063561 87.5675259,35.0114151 C87.3725848,34.7969799 87.2751143,34.6020388 87.2751143,34.3876037 C87.2751143,34.1731685 87.2946084,33.9782274 87.3530907,33.7442982 C87.411573,33.529863 87.4895495,33.2959337 87.6260082,33.0620044 C87.762467,32.8280752 87.9379139,32.61364 88.1523491,32.4576871 C88.3667843,32.3017343 88.7761605,32.1457814 89.3414896,32.0288168 L89.4779483,31.9508404 M88.4057725,33.6273335 L88.2693137,33.8417687 L88.2693137,34.1146862 L88.5227371,34.3486155 L88.9126192,34.3486155 L89.2830073,34.1536744 L89.4584542,33.900251 L89.419466,33.5688512 L89.2050308,33.2959337 C89.0880662,33.2569455 88.9126192,33.2764396 88.6591959,33.3934042 L88.4057725,33.6273335" id="Shape" fill="#000000" fill-rule="nonzero"></path>
                        <path d="M97.2366027,37.8380605 C97.9188964,37.9745192 98.4257432,38.0135075 98.7181548,37.935531 C99.0300605,37.8575546 99.2639897,37.6626135 99.4199426,37.3507078 C99.5758954,37.0582962 99.5953895,36.6684141 99.5174131,36.2200497 C99.4199426,35.7521911 99.1665192,35.2453444 98.757143,34.6995094 C98.3477667,34.1341803 97.8799082,33.6858158 97.3730614,33.3349219 C96.8662146,32.984028 96.573803,32.7695928 96.4958266,32.6721223 L96.378862,32.3407225 L96.5348148,32.0288168 L96.9831793,31.9118522 C97.1781203,31.9118522 97.4510378,32.0093227 97.7824376,32.1847696 C98.1138375,32.3797107 98.5427078,32.7306046 99.0690487,33.2569455 C99.5758954,33.7832864 100.004766,34.3681096 100.316671,35.0114151 C100.628577,35.6547206 100.78453,36.2395438 100.804024,36.7853788 C100.823518,37.3312137 100.745542,37.7016018 100.609083,37.9550251 C100.45313,38.1889544 100.238695,38.4033896 99.9072952,38.5983306 C99.5953895,38.7932717 99.1470251,38.9102364 98.6011901,38.9492246 C98.0553551,38.9882128 97.5290143,38.9297305 97.0026734,38.8127658 C96.4958266,38.6958012 96.1449327,38.5203542 95.9110034,38.2669308 C95.6965683,38.0330016 95.5796036,37.7795782 95.5601095,37.5261548 C95.5406154,37.2727314 95.5796036,37.1167786 95.6965683,37.0582962 L96.0669563,37.0777904 L96.5153207,37.4091902 C96.6517795,37.5846371 96.9052029,37.7210959 97.2366027,37.8380605 M96.3593679,30.9371468 C96.6517795,31.1905702 96.9052029,31.2685466 97.119638,31.2100643 C97.3340732,31.151582 97.4900261,31.0541115 97.5680025,30.8981586 L97.6264848,30.410806 L97.3730614,30.0014297 L96.924697,29.8844651 L96.4958266,30.0404179 L96.2229091,30.2548531 L96.1254386,30.4692883 C96.1254386,30.5472647 96.1839209,30.7032176 96.3593679,30.9371468" id="Shape" fill="#000000" fill-rule="nonzero"></path>
                        <path d="M101.915188,32.6916164 C102.071141,32.5356636 102.30507,32.3797107 102.597482,32.243252 C102.889894,32.1067932 103.240787,32.067805 103.650164,32.1457814 C104.05954,32.2237579 104.429928,32.4186989 104.800316,32.7695928 C105.15121,33.1204868 105.346151,33.4518866 105.365645,33.8027805 C105.385139,34.1536744 105.326657,34.446086 105.190198,34.7190035 C105.053739,34.991921 104.839304,35.2258502 104.527398,35.4402854 C104.215493,35.6547206 103.942575,35.7716852 103.72814,35.7911793 C103.494211,35.8106734 103.182305,35.7911793 102.772929,35.6742147 C102.363553,35.5767442 102.051647,35.4207913 101.856706,35.2648385 C101.661765,35.0893915 101.525306,34.8749563 101.44733,34.6215329 C101.369353,34.3681096 101.388847,34.0172156 101.466824,33.529863 C101.603282,33.1204868 101.759235,32.8475693 101.915188,32.6916164 M103.201799,34.7190035 C103.416234,34.7969799 103.63067,34.7774858 103.864599,34.6800153 C104.098528,34.5825447 104.234987,34.4265919 104.273975,34.2511449 L104.215493,33.7442982 L103.942575,33.4908748 L103.650164,33.5493571 L103.39674,33.6858158 L103.221293,33.7053099 L103.026352,33.5493571 L102.694952,33.4908748 L102.461023,33.7248041 C102.441529,33.8612628 102.480517,34.0367098 102.577988,34.3291214 C102.792423,34.5045683 102.987364,34.6410271 103.201799,34.7190035" id="Shape" fill="#000000" fill-rule="nonzero"></path>
                        <path d="M109.147502,32.9255457 C109.94676,31.8143816 110.453607,31.1125938 110.648548,30.8396763 C110.843489,30.5667588 110.979948,30.3523236 111.096912,30.2158649 L111.447806,29.9429474 L111.857182,29.9234533 L112.188582,30.1183944 L112.266559,30.4692883 C112.247065,30.5862529 112.149594,30.7616999 111.993641,31.0151233 C111.837688,31.2490525 111.584265,31.5414641 111.233371,31.8923581 C110.882477,32.243252 110.492595,32.6916164 110.102713,33.2569455 C109.693337,33.8222746 109.18649,34.6800153 108.601667,35.8301675 C107.997349,36.9803198 107.626961,37.6431194 107.490503,37.8185664 C107.354044,37.9940134 107.159103,38.1694603 106.944668,38.3254132 C106.730232,38.481366 106.535291,38.5398483 106.34035,38.5008601 L106.028445,38.3059191 L106.125915,37.8965428 C106.203892,37.7210959 106.496303,37.2727314 106.983656,36.5709436 C107.471009,35.8496616 107.743926,35.4207913 107.802408,35.2648385 L107.919373,34.8944504 C107.919373,34.7969799 107.802408,34.5630506 107.548985,34.1926626 C107.295562,33.8222746 107.00315,33.4908748 106.691244,33.1984632 C106.379339,32.9060516 106.184397,32.7111105 106.106421,32.5551577 L105.989456,32.1652755 L106.125915,31.8143816 L106.476809,31.6389347 L106.964162,31.7948875 C107.139609,31.8923581 107.373538,32.1652755 107.685444,32.5551577 C107.977855,32.9645339 108.172796,33.2179573 108.270267,33.3154278 L108.465208,33.5103689 L108.640655,33.6468276 L108.85509,33.5493571 C108.894078,33.4323925 109.011043,33.2179573 109.147502,32.9255457" id="Path" fill="#000000" fill-rule="nonzero"></path>
                        <path d="M31.8533698,40.2358356 C31.8533698,40.2358356 38.110978,35.9471322 49.5930067,35.5572501 C50.3532768,35.5377559 50.6651825,35.8106734 50.7236648,36.0640968 C50.8016412,36.4929672 50.021877,37.2142491 48.3258897,37.2532373 C40.9571175,37.4091902 36.0835909,38.8127658 32.5551577,40.2553297 C30.8201822,40.9571175 31.8533698,40.2358356 31.8533698,40.2358356" id="Path" fill="#000000" fill-rule="nonzero"></path>
                        <path d="M113.338735,7.42725453 C115.346628,7.42725453 117.081603,5.86772602 117.081603,3.72337432 C117.081603,1.59851672 115.366122,0.0389882128 113.338735,0.0389882128 C111.291853,0.0389882128 109.576372,1.59851672 109.576372,3.72337432 C109.595866,5.86772602 111.311347,7.42725453 113.338735,7.42725453" id="Path" fill="#000000"></path>
                        <path d="M110.317148,3.72337432 C110.317148,1.96890475 111.642747,0.643305511 113.338735,0.643305511 C115.015228,0.643305511 116.340827,1.96890475 116.340827,3.72337432 C116.340827,5.497338 115.015228,6.82293724 113.338735,6.82293724 C111.642747,6.80344313 110.317148,5.497338 110.317148,3.72337432" id="Path" fill="#FFFFFF"></path>
                        <path d="M112.55897,4.01578592 L113.299746,4.01578592 L114.430405,5.86772602 L115.151686,5.86772602 L113.943052,3.99629181 C114.566863,3.91831538 115.054216,3.58691558 115.054216,2.82664543 C115.054216,1.98839885 114.547369,1.61801083 113.55317,1.61801083 L111.935159,1.61801083 L111.935159,5.88722013 L112.578464,5.88722013 L112.578464,4.01578592 L112.55897,4.01578592 Z" id="Path" fill="#000000"></path>
                        <path d="M112.55897,3.46995094 L112.55897,2.1443517 L113.436205,2.1443517 C113.88457,2.1443517 114.371922,2.24182223 114.371922,2.76816311 C114.371922,3.41146862 113.88457,3.46995094 113.338735,3.46995094 L112.55897,3.46995094 L112.55897,3.46995094 Z" id="Path" fill="#FFFFFF"></path>
                        <polygon id="Path" fill="#000000" fill-rule="nonzero" points="9.20121822 25.2448678 8.44094807 25.3423383 7.68067792 25.4203147 6.92040777 25.4203147 6.17963173 25.3813265 5.45834979 25.283856 4.71757375 25.108409 3.99629181 24.8939739 3.27500987 24.6210564 2.59271615 24.1726919 2.24182223 23.9582568 1.92991653 23.6853393 1.61801083 23.3929277 1.32559923 23.0615279 1.07217585 22.7496222 0.818752468 22.3987282 0.818752468 22.3792341 0.779764256 22.35974 0.526340872 21.8528933 0.311905702 21.3460465 0.116964638 20.2738706 0.116964638 19.7280357 0.155952851 19.1627066 0.311905702 18.6558598 0.526340872 18.1295189 0.662799617 17.7591309 0.877234787 17.4277311 1.11116406 17.0963313 1.42306977 16.8039197 1.73497547 16.5504963 2.02738706 16.316567 2.37828098 16.121626 2.72917489 15.9656731 3.48944504 15.7317439 4.30819751 15.6927556 5.10745587 15.7707321 5.86772602 16.0046613 5.90671424 16.0436496 6.17963173 16.1411201 6.25760815 16.1411201 6.31609047 16.1021319 6.31609047 5.14644409 6.37457279 4.581115 6.413561 4.05477413 6.51103153 3.48944504 6.66698438 2.98259828 6.86192545 2.4367633 7.17383115 1.94941064 7.46624275 1.48155209 7.87561898 1.07217585 7.87561898 1.05268174 7.9341013 1.03318764 8.38246575 0.682293724 8.88931251 0.409376234 9.43514749 0.21443517 10.0004766 0.0974705319 10.6632762 0.0389882128 10.8582173 0.0779764256 10.994676 0.0779764256 11.5210169 0.116964638 12.0278636 0.253423383 12.5152163 0.448364447 12.9245925 0.70178783 13.372957 1.01369353 13.7238509 1.36458745 14.0357566 1.77396368 14.28918 2.22232813 14.5231093 2.72917489 14.5231093 2.76816311 14.7375444 3.33349219 14.835015 3.91831538 14.8934973 4.32769162 14.9324855 4.69807964 14.9909678 5.10745587 14.9909678 8.69437145 15.0494501 8.75285377 15.1469207 8.71386556 15.4393323 8.46044217 16.1021319 7.89511309 16.8234138 7.36877221 17.5641899 6.93990187 18.32446 6.58900796 19.1822007 6.27710226 19.981459 6.06266709 20.8391997 5.92620834 21.6969404 5.88722013 22.6131634 5.90671424 23.4709041 6.02367887 24.2896566 6.19912583 25.1279031 6.47204332 25.9466556 6.80344313 26.6874316 7.21281936 27.4087136 7.70017202 28.0715132 8.26550111 28.1105014 8.28499522 28.2079719 8.40195985 28.5003835 8.69437145 28.6758305 8.69437145 28.6758305 8.67487734 28.7148187 8.63588913 28.7148187 4.69807964 28.8122892 4.05477413 28.9097598 3.46995094 29.1047008 2.88512775 29.2216655 2.57322204 29.319136 2.31979866 29.4750889 2.04688117 29.6700299 1.79345779 30.0209238 1.32559923 30.5277706 0.916223 30.5277706 0.896728894 30.5667588 0.857740681 31.1905702 0.526340872 31.7948875 0.292411596 32.438193 0.175446957 33.1009926 0.136458745 33.7053099 0.21443517 34.3681096 0.350893915 34.9139445 0.604317298 35.4792736 0.935717107 35.5767442 1.01369353 35.8301675 1.24762281 35.9276381 1.34509334 36.0251086 1.38408155 36.2200497 1.24762281 36.5904377 0.916223 36.6294259 0.896728894 36.6879082 0.857740681 37.2337432 0.526340872 37.8575546 0.292411596 38.5008601 0.175446957 39.1636597 0.136458745 39.8069652 0.21443517 40.4112825 0.350893915 41.0155998 0.604317298 41.5224466 0.935717107 41.6199171 1.01369353 41.9903052 1.32559923 42.0877757 1.42306977 42.1852462 1.46205798 42.2242344 1.46205798 42.3411991 1.32559923 42.692093 1.07217585 43.0429869 0.818752468 43.3938808 0.623811404 43.8032571 0.448364447 44.6025154 0.21443517 45.4212679 0.136458745 46.2790086 0.21443517 47.0782669 0.448364447 47.4681491 0.604317298 47.8385371 0.818752468 48.189431 1.05268174 48.4818426 1.32559923 48.6377954 1.42306977 48.6962778 1.46205798 48.735266 1.42306977 48.8912188 1.32559923 49.2421127 0.994199426 49.3005951 0.955211213 49.3005951 0.935717107 49.8074418 0.623811404 50.3532768 0.370388021 50.9186059 0.21443517 51.5229232 0.136458745 52.1662287 0.136458745 52.8290283 0.233929277 53.4333456 0.448364447 54.0376629 0.740776043 54.0961452 0.760270149 54.6419802 1.18914049 54.8564154 1.42306977 55.2462975 1.91042243 55.4022504 2.20283402 55.5582032 2.47575151 55.6556737 2.76816311 55.8506148 3.33349219 56.0455559 4.44465626 56.1040382 5.02947945 56.1040382 5.94570245 56.2015087 5.96519655 56.3964498 5.94570245 57.4686256 5.88722013 58.5213074 5.98469066 59.5934832 6.21861994 60.5486944 6.56951385 61.0555412 6.80344313 61.5039057 7.07636062 61.9522701 7.34927811 62.3616463 7.68067792 62.7710226 8.01207773 63.1609047 8.40195985 63.5117986 8.79184198 63.8237043 9.20121822 64.1745982 9.66907677 64.6424568 10.4293469 64.681445 10.448841 64.7789155 10.4293469 64.9543625 10.1759235 65.2857623 9.70806498 65.5781739 9.24020643 65.968056 8.83083019 66.3774323 8.44094807 66.7868085 8.05106594 67.2351729 7.70017202 67.7420197 7.36877221 68.2488665 7.07636062 68.7557132 6.80344313 69.26256 6.58900796 70.3737241 6.23811404 71.4848881 6.02367887 72.6350404 5.94570245 73.7462045 6.00418477 74.8573685 6.21861994 75.9685326 6.56951385 76.4753794 6.80344313 77.0212143 7.07636062 77.4890729 7.34927811 77.9959197 7.66118381 78.4442841 8.01207773 78.8536603 8.40195985 79.2435425 8.79184198 79.6529187 9.20121822 80.0038126 9.66907677 80.4521771 10.3513705 80.5496476 10.4293469 80.6666122 10.3513705 81.1149767 9.66907677 81.4073883 9.22071232 81.7777763 8.79184198 82.1871525 8.40195985 82.5770347 8.05106594 83.0448932 7.70017202 83.4737636 7.38826632 83.9416221 7.09585473 84.4484689 6.84243134 84.9358215 6.62799617 86.0079974 6.27710226 87.1191615 6.06266709 88.2303255 6.00418477 88.9905957 6.04317298 89.6923835 6.17963173 90.4526536 6.413561 91.1154533 6.7059726 91.1934297 6.76445492 91.3103943 6.76445492 91.4078649 6.7059726 92.0121822 6.43305511 92.6164995 6.25760815 93.3182873 6.17963173 93.9810869 6.19912583 94.5269219 6.29659636 95.0337686 6.47204332 95.5406154 6.7254667 95.9889799 7.03737241 96.1059445 7.07636062 96.3008856 7.25180758 96.3983561 7.36877221 96.4958266 7.38826632 96.5543089 7.36877221 96.6517795 7.25180758 96.8467205 7.07636062 96.9636852 7.0178783 97.4120496 6.7059726 97.9188964 6.47204332 98.4647314 6.29659636 99.0300605 6.19912583 99.6928601 6.17963173 100.336166 6.25760815 100.979471 6.43305511 101.583788 6.7254667 101.583788 6.74496081 101.642271 6.74496081 101.700753 6.80344313 101.778729 6.80344313 101.895694 6.76445492 102.558494 6.49153743 102.616976 6.49153743 103.708646 6.21861994 104.878292 6.08216119 106.086927 6.12114941 107.237079 6.29659636 107.958361 6.49153743 108.660149 6.76445492 109.303455 7.09585473 109.927266 7.54421917 110.473101 8.01207773 110.979948 8.57740681 111.428312 9.18172411 111.623253 9.51312392 111.993641 10.3123823 112.1301 10.819229 112.286053 11.2870876 112.480994 12.3007811 112.597959 13.3339688 112.597959 19.9034826 112.539476 20.3908353 112.539476 20.8781879 112.344535 21.9113756 112.188582 22.4182223 111.993641 22.8860809 111.837688 23.1979866 111.428312 23.7438216 111.233371 23.997245 110.979948 24.2311742 110.726524 24.4456094 110.122207 24.7575151 110.083219 24.7965033 110.024736 24.7965033 109.498396 24.9914444 108.952561 25.108409 108.406726 25.1473972 107.841397 25.1279031 107.237079 25.0304326 106.691244 24.8354915 106.145409 24.5430799 105.638563 24.192186 105.58008 24.1726919 105.58008 24.1337037 105.170704 23.7243275 104.81981 23.2564689 104.566387 22.7496222 104.371446 22.2232813 104.215493 21.5409876 104.118022 21.073129 104.079034 21.0341408 104.020552 21.0146467 103.864599 21.0146467 103.825611 21.0341408 103.767128 21.073129 103.669658 21.5409876 103.513705 22.1842931 103.260282 22.8081045 103.104329 23.1005161 102.909388 23.3929277 102.694952 23.6658452 102.500011 23.9192685 102.246588 24.1726919 102.012659 24.367633 101.388847 24.7185269 101.349859 24.738021 101.291377 24.7770092 100.78453 24.9719503 100.180213 25.0889149 99.6343778 25.1473972 99.0885428 25.1279031 98.4647314 25.0304326 97.8604141 24.8354915 97.3145791 24.5430799 96.8077323 24.192186 96.8077323 24.1726919 96.7687441 24.1337037 96.6517795 24.0362332 96.5543089 23.9192685 96.4568384 23.9192685 96.3983561 23.9192685 96.3008856 24.0362332 96.0474622 24.2701625 95.9889799 24.3091507 95.8915093 24.367633 95.3846626 24.6795387 94.8388276 24.9329621 94.2345103 25.0889149 93.630193 25.1668913 93.0258757 25.1473972 92.4215584 25.0304326 91.797747 24.8354915 91.251912 24.562574 91.1934297 24.5040917 91.1154533 24.5040917 90.9984886 24.5430799 90.335689 24.8354915 89.6339012 25.0499267 89.6339012 25.0694208 88.4252666 25.2448678 87.2751143 25.2448678 86.0469856 25.0694208 85.5011506 24.913468 84.8968333 24.7185269 84.3899866 24.4845976 83.8441516 24.192186 83.3373048 23.8997744 82.830458 23.5488805 82.3820936 23.1395043 81.9727174 22.7496222 81.5828352 22.2817636 81.2124472 21.7944109 81.0564944 21.5994699 80.9785179 21.5409876 80.8615533 21.5994699 80.7445887 21.813905 80.3547065 22.3207518 79.9453303 22.7691163 79.51646 23.1979866 78.9901191 23.5878687 78.4442841 23.9192685 77.8399668 24.2311742 77.2161554 24.5040917 76.6118381 24.738021 75.3252271 25.0889149 73.9996279 25.283856 73.2588518 25.3228442 72.4790876 25.3228442 71.6798292 25.2643619 70.9390531 25.1279031 70.1592889 24.9524562 69.4575011 24.6990328 68.7557132 24.3871271 68.0539254 24.0362332 67.9954431 23.997245 67.9954431 23.997245 67.5470786 23.7048334 67.0792201 23.3734336 66.689338 23.0225396 66.2799617 22.6716457 65.9290678 22.2817636 65.2467741 21.4240229 64.9543625 20.9951526 64.7789155 20.7612233 64.681445 20.702741 64.6424568 20.7612233 64.4865039 20.9951526 64.1745982 21.4240229 63.9211748 21.813905 63.5702809 22.2232813 63.2778693 22.5936693 62.8684931 22.9250691 62.5175992 23.2564689 61.6988467 23.8607862 60.8021178 24.367633 59.8858948 24.738021 58.9306836 25.0304326 57.9169901 25.2058796 56.9617789 25.2448678 56.0065677 25.1473972 55.1098388 24.913468 54.1936158 24.5430799 54.0961452 24.5040917 53.9791806 24.5040917 53.9401924 24.5430799 53.3358751 24.8549856 53.2384045 24.8939739 52.7315578 25.0304326 52.224711 25.1279031 51.7178642 25.1473972 51.2110175 25.108409 50.6456884 24.9914444 50.0998534 24.7965033 49.5930067 24.5235858 49.1446422 24.192186 49.105654 24.1726919 49.0471717 24.1337037 48.8522306 23.9192685 48.6962778 23.7828098 48.6377954 23.7438216 48.5403249 23.7828098 48.4428544 23.9192685 48.189431 24.1337037 47.9360076 24.367633 47.8385371 24.4456094 47.273208 24.738021 46.6104084 24.9719503 46.0060911 25.108409 45.3627856 25.1473972 44.6999859 25.0889149 44.1151628 24.9329621 43.4913514 24.6795387 42.9455164 24.367633 42.8870341 24.3091507 42.8870341 24.2701625 42.4386696 23.8997744 42.3411991 23.7633157 42.2242344 23.7243275 42.1852462 23.7633157 42.0292934 23.8997744 41.77587 24.1337037 41.5224466 24.367633 41.4249761 24.4456094 40.8791411 24.738021 40.2748238 24.9719503 39.6120242 25.108409 38.9492246 25.1473972 38.3449073 25.0889149 37.6821076 24.9329621 37.1362727 24.6795387 36.5904377 24.367633 36.4734731 24.2701625 36.2200497 24.0362332 36.0251086 23.8997744 35.9276381 23.9192685 35.8301675 24.0362332 35.4792736 24.367633 35.362309 24.4456094 34.816474 24.738021 34.1536744 24.9719503 33.5493571 25.108409 32.9060516 25.1473972 32.243252 25.0889149 31.6389347 24.9329621 31.0346174 24.6795387 30.4887824 24.367633 30.3718178 24.2701625 30.0209238 23.9192685 29.6700299 23.4903982 29.3581242 23.0225396 29.1047008 22.535187 29.0267244 22.2622695 28.9682421 22.2037872 28.8707716 22.2427754 28.6758305 22.4377165 28.0715132 23.0225396 27.4087136 23.5683746 26.6874316 24.0362332 25.9856438 24.4456094 25.1863855 24.7965033 24.367633 25.0694208 23.5683746 25.2643619 22.7691163 25.3813265 21.9113756 25.4203147 21.0536349 25.3813265 20.1764001 25.283856 19.3771418 25.108409 18.5778834 24.8354915 17.8176132 24.5040917 17.0573431 24.0947155 16.3555553 23.6268569 15.7902262 23.1784925 15.3028735 22.7106339 14.835015 22.1842931 14.3866505 21.6384581 14.2306977 21.4240229 14.1332271 21.3460465 14.0357566 21.4240229 13.9382861 21.6579522 13.5289098 22.3402459 13.0805454 22.9445632 12.5152163 23.5098923 11.9693813 23.997245 11.3065817 24.4066212 10.6632762 24.7770092 9.90300605 25.0499267"></polygon>
                        <polygon id="Path" fill="#FFFFFF" fill-rule="nonzero" points="97.4120496 19.9034826 97.4120496 20.3518471 97.4510378 20.7612233 97.5095202 21.2095878 97.6069907 21.6384581 97.7044612 21.8723874 97.8604141 22.1258108 98.0163669 22.35974 98.211308 22.535187 98.4257432 22.7106339 98.6791665 22.8470927 98.9715781 22.9250691 99.2250015 22.9835514 99.8878011 22.9835514 100.433636 22.8081045 100.745542 22.6326575 100.940483 22.4377165 101.154918 22.2037872 101.291377 21.9308697 101.44733 21.5994699 101.5448 21.2095878 101.583788 20.8391997 101.642271 20.4493176 101.642271 14.6205798 101.700753 14.1722153 101.895694 13.2754865 102.012659 13.0220631 102.090635 12.7491456 102.30507 12.5152163 102.500011 12.3007811 102.694952 12.1253342 103.006858 11.9888754 103.260282 11.910899 103.572187 11.8524167 104.215493 11.8524167 104.81981 11.9888754 105.170704 12.1253342 105.424127 12.3592635 105.697045 12.6321809 105.891986 12.9635807 105.969962 13.2559923 106.086927 13.5873922 106.145409 13.9382861 106.184397 14.2696859 106.184397 20.3518471 106.24288 20.7612233 106.34035 21.2095878 106.437821 21.6384581 106.632762 22.1258108 106.847197 22.35974 107.00315 22.535187 107.237079 22.7106339 107.490503 22.8470927 107.743926 22.9250691 108.055832 22.9835514 108.660149 22.9835514 109.205984 22.8081045 109.478901 22.6716457 109.712831 22.4767047 109.927266 22.2427754 110.083219 21.989352 110.161195 21.6774463 110.37563 21.0341408 110.37563 20.702741 110.414619 19.9034826 110.414619 13.0220631 110.37563 12.6321809 110.27816 12.2422988 110.219678 11.8524167 110.122207 11.4625346 109.810301 10.7412526 109.556878 10.3123823 109.303455 9.90300605 108.952561 9.53261802 108.601667 9.20121822 108.153302 8.92830073 107.743926 8.69437145 107.237079 8.5384186 106.808209 8.40195985 105.891986 8.26550111 105.034245 8.246007 104.118022 8.30448932 103.260282 8.5384186 102.753435 8.71386556 102.30507 8.96728894 101.895694 9.27919464 101.486318 9.64958266 101.349859 9.31818285 101.096436 9.02577126 100.843012 8.79184198 100.550601 8.57740681 100.238695 8.46044217 99.8878011 8.36297164 99.5758954 8.30448932 99.2250015 8.32398343 98.7181548 8.46044217 98.4647314 8.57740681 98.2697903 8.71386556 98.0553551 8.88931251 97.8604141 9.10374768 97.6459789 9.61059445 97.5095202 10.0004766 97.4120496 10.8582173"></polygon>
                        <polygon id="Path" fill="#FFFFFF" fill-rule="nonzero" points="91.4078649 21.5019993 91.7197706 22.0868225 91.9147116 22.3402459 92.168135 22.5741752 92.4215584 22.7496222 92.71397 22.8860809 93.0648639 22.9640573 93.3767696 23.0225396 93.7276635 22.9835514 94.0785574 22.905575 94.3904631 22.8081045 94.6828747 22.6326575 94.8973099 22.4182223 95.0337686 22.1842931 95.1897215 21.9308697 95.287192 21.6579522 95.4431449 21.248576 95.5406154 20.3518471 95.5406154 10.9361937 95.4431449 10.0979471 95.3261802 9.66907677 95.2287097 9.39615928 95.092251 9.1427359 94.9362981 8.92830073 94.6828747 8.71386556 94.4879337 8.57740681 94.2345103 8.46044217 93.7276635 8.32398343 93.1818285 8.32398343 92.6164995 8.49943039 92.3630761 8.63588913 91.9147116 8.96728894 91.7587588 9.16223 91.5638177 9.39615928 91.4078649 9.64958266 91.1154533 9.29868875 90.7450652 9.00627715 90.3941713 8.75285377 89.9847951 8.5384186 89.5364306 8.36297164 89.1270544 8.26550111 88.67869 8.18752468 88.2303255 8.14853647 87.2751143 8.2265129 86.3199031 8.42145396 85.4036801 8.75285377 84.9943039 8.96728894 84.5849276 9.20121822 84.1950455 9.49362981 83.8441516 9.80553551 83.4737636 10.1369353 83.181352 10.4878292 82.8694463 10.8777114 82.3820936 11.6769697 82.1871525 12.1253342 81.9727174 12.6321809 81.8167645 13.1585218 81.6608117 13.6848627 81.5633411 14.2306977 81.4658706 14.7960267 81.4073883 15.3223676 81.4073883 15.8682026 81.4658706 16.4335317 81.5243529 16.9793667 81.6218234 17.5057075 81.7777763 18.0515425 81.914235 18.5583893 82.1286702 19.0847302 82.3820936 19.5915769 82.635517 20.0789296 82.9279286 20.527294 83.181352 20.897682 83.4737636 21.2095878 83.7856693 21.5214935 84.1365632 21.813905 84.5069512 22.0868225 84.8578451 22.3207518 85.6571035 22.7106339 86.5148442 22.9640573 87.3725848 23.1005161 88.2693137 23.1005161 89.1270544 22.9640573 89.789854 22.7496222 90.3941713 22.4377165 90.9595004 22.0088461 91.1934297 21.7749168"></polygon>
                        <polygon id="Path" fill="#000000" fill-rule="nonzero" points="85.8130563 15.5952851 85.8520445 16.1411201 85.9690092 16.6869551 86.1054679 17.1938018 86.3199031 17.7006486 86.4563618 17.954072 86.670797 18.1880013 86.8657381 18.4024364 87.0606791 18.5778834 87.3141025 18.7533303 87.6260082 18.870295 88.1718432 19.0262478 88.7761605 19.0457419 89.3414896 18.9287773 89.6339012 18.8118127 89.9068187 18.6753539 90.1407479 18.5194011 90.5501242 18.0905307 90.8425358 17.583684 90.9984886 17.3302606 91.1154533 17.0573431 91.1544415 16.7649315 91.251912 16.4725199 91.251912 16.1801083 91.3103943 15.8682026 91.3103943 15.1859089 91.251912 14.8545091 91.1544415 14.5231093 91.1154533 14.2306977 90.9595004 13.918792 90.8425358 13.6068863 90.6475947 13.3339688 90.511136 13.0610513 90.2382185 12.8466161 89.9847951 12.651675 89.6923835 12.4762281 89.3804778 12.3397693 88.7761605 12.2033106 88.132855 12.2422988 87.8209493 12.3202752 87.4700554 12.4372399 87.216632 12.5736986 86.9632086 12.7881338 86.7097852 13.0220631 86.5148442 13.2559923 86.2029385 13.8018273 86.0469856 14.0747448 85.9690092 14.3866505 85.9105269 14.659568 85.8130563 15.2833794"></polygon>
                        <polygon id="Path" fill="#FFFFFF" fill-rule="nonzero" points="69.9253596 16.8429079 77.5280611 16.8429079 78.0349079 16.8039197 78.600237 16.7454374 78.8926486 16.6479669 79.1460719 16.4725199 79.3020248 16.3360612 79.51646 16.0241555 79.5359541 15.8682026 79.6529187 14.9714737 79.5944364 14.3476623 79.51646 13.7043568 79.341013 13.1000395 79.1460719 12.4762281 78.8536603 11.8914049 78.5417546 11.3260758 78.1908607 10.819229 77.7814845 10.3123823 77.33312 9.86401783 76.8262733 9.4741357 76.2609442 9.10374768 75.7151092 8.79184198 75.1497801 8.57740681 74.5454628 8.36297164 73.9021573 8.2265129 73.29784 8.12904236 72.6350404 8.09005415 71.9917349 8.12904236 71.3874176 8.2265129 70.724618 8.36297164 70.1203007 8.57740681 69.5549716 8.79184198 69.0091366 9.10374768 68.4633016 9.4741357 67.9564549 9.86401783 67.4885963 10.3123823 67.0792201 10.819229 66.7478203 11.3260758 66.4359146 11.8914049 66.143503 12.4762281 65.9290678 13.1000395 65.773115 13.7043568 65.5781739 14.8934973 65.5391857 15.5173087 65.5391857 16.121626 65.5781739 16.7259433 65.6756444 17.3302606 65.8315973 17.9150838 66.0265383 18.499907 66.2799617 19.0457419 66.5918674 19.5915769 67.2936553 20.5857763 67.7030315 21.0341408 68.1513959 21.4630111 68.5997604 21.8333992 69.1066071 22.1842931 69.6719362 22.4572106 70.2177712 22.7106339 70.7636062 22.8860809 71.3874176 23.0225396 71.9917349 23.1200102 72.5960522 23.1979866 73.8046868 23.1200102 74.8573685 22.9835514 75.9295444 22.7106339 76.8847556 22.3207518 77.33312 22.0868225 77.7814845 21.7944109 78.1323784 21.5409876 78.4832723 21.248576 78.7366957 20.9171762 78.9901191 20.5467881 79.1460719 20.2348824 79.2435425 19.9034826 79.2435425 19.5330946 79.2045543 19.2016948 79.1460719 18.9677655 79.0486014 18.7533303 78.9511309 18.5583893 78.795178 18.4024364 78.600237 18.2659777 78.3858018 18.149013 77.9374373 18.0320484 77.5280611 18.0125543 77.0796967 18.1100248 76.0660031 18.5388952 75.5591564 18.7923186 75.0523096 18.9872596 73.9411455 19.2796712 73.3368282 19.3576476 72.7325109 19.3381535 72.1281936 19.240683 71.5433704 19.0457419 71.2314647 18.8897891 70.9390531 18.7143421 70.6661357 18.499907 70.4711946 18.2269895 70.2762535 17.9345779 70.1203007 17.6226722 70.0228301 17.2912724 69.9643478 16.9403785"></polygon>
                        <polygon id="Path" fill="#000000" fill-rule="nonzero" points="69.8668773 14.0747448 75.4616858 14.0747448 75.4226976 13.7043568 75.3252271 13.372957 75.2082624 13.0220631 75.0133214 12.7101574 74.7988862 12.4372399 74.5454628 12.1838165 74.2530512 11.9888754 73.9606396 11.8134285 73.6097457 11.6769697 73.29784 11.5600051 72.5375699 11.5015228 72.186676 11.540511 71.8747703 11.6379815 71.5238763 11.7744403 71.2314647 11.9498872 70.9780414 12.1448283 70.724618 12.3592635 70.3347359 12.8466161 70.003336 13.4314393 69.9643478 13.743345"></polygon>
                        <polygon id="Path" fill="#FFFFFF" fill-rule="nonzero" points="53.9401924 9.24020643 53.9401924 4.65909143 53.8817101 4.2692093 53.7842395 3.89882128 53.6282867 3.50893915 53.5308161 3.23602166 53.3748633 2.98259828 53.1799222 2.748669 52.9264988 2.57322204 52.6340872 2.4367633 52.3221815 2.33929277 51.9712876 2.30030455 51.6593819 2.30030455 51.113547 2.39777509 50.8016412 2.49524562 50.567712 2.67069258 50.3532768 2.84613953 50.197324 3.08006881 50.0608652 3.33349219 49.9439006 3.60640968 49.8074418 4.05477413 49.7099713 4.93200892 49.7099713 20.3518471 49.7489595 20.7612233 49.8074418 21.2095878 49.9049124 21.6384581 50.0023829 21.8723874 50.1388416 22.1258108 50.3142886 22.35974 50.5092297 22.535187 50.7041707 22.7106339 50.9770882 22.8470927 51.4644409 22.9640573 52.02977 22.9835514 52.4781344 22.8860809 52.8290283 22.7106339 53.140934 22.4961988 53.3748633 22.2232813 53.6282867 21.9308697 53.7842395 21.6384581 54.1936158 21.989352 54.6419802 22.3207518 55.0903447 22.5936693 55.5971914 22.8081045 56.1040382 22.9640573 56.610885 23.0420338 57.176214 23.081022 57.6635667 23.0615279 58.5797897 22.8860809 59.4960127 22.6131634 60.2952711 22.1842931 60.7046473 21.9503638 61.4064351 21.3850347 61.757329 21.0536349 62.0497406 20.702741 62.3226581 20.3518471 62.6150697 19.9619649 63.024446 19.1432125 63.1609047 18.7143421 63.3753399 18.2074954 63.5117986 17.6616604 63.6287633 17.1353195 63.7262338 16.6089786 63.765222 16.0631437 63.765222 14.9909678 63.6872456 14.4451328 63.6287633 13.918792 63.4728104 13.372957 63.3168576 12.8466161 63.1609047 12.3592635 62.9269754 11.8524167 62.6540579 11.3845581 62.4201287 10.9166996 62.108223 10.448841 61.8158114 10.1174412 61.5039057 9.78604141 61.192 9.4741357 60.841106 9.18172411 60.4512239 8.92830073 60.10033 8.71386556 59.2425893 8.36297164 58.3848486 8.14853647 57.4686256 8.05106594 56.5718967 8.09005415 55.7141561 8.28499522 55.1878152 8.46044217 54.7979331 8.65538324 54.3495686 8.92830073"></polygon>
                        <polygon id="Path" fill="#000000" fill-rule="nonzero" points="53.8817101 15.5562969 53.8817101 16.1411201 53.9986747 16.7259433 54.1936158 17.2522842 54.3885568 17.778625 54.5834979 18.0515425 54.7979331 18.3049659 54.9928741 18.5194011 55.2462975 18.7143421 55.4997209 18.8508009 55.7921325 18.9677655 56.3964498 19.1042243 57.0202612 19.0847302 57.6245785 18.9287773 57.9169901 18.7923186 58.1704135 18.6168716 58.3653545 18.4024364 58.638272 18.1880013 58.7747308 17.9345779 58.9891659 17.6616604 59.1256247 17.3692488 59.3205657 16.7649315 59.4375304 16.1411201 59.4960127 15.8097203 59.4960127 15.4978146 59.4375304 15.1469207 59.4375304 14.8155209 59.3205657 14.484121 59.3010716 14.1332271 59.1256247 13.8408155 59.0281541 13.5289098 58.8332131 13.2364982 58.6967543 12.9635807 58.4823192 12.7101574 58.2288958 12.5152163 57.9169901 12.3202752 57.6635667 12.1838165 57.3711551 12.0668519 56.7083555 11.9888754 56.06505 12.0473577 55.7141561 12.1643224 55.4022504 12.3007811 55.1098388 12.4957222 54.8564154 12.7101574 54.6419802 12.9830749 54.4470391 13.2754865 54.1936158 13.8213214 54.0961452 14.0747448 53.9986747 14.3866505 53.9401924 14.659568 53.8817101 14.9714737"></polygon>
                        <polygon id="Path" fill="#FFFFFF" fill-rule="nonzero" points="42.9845046 4.73706785 43.0429869 4.97099713 43.0429869 5.22442051 43.0819751 5.45834979 43.2964103 5.90671424 43.4523631 6.12114941 43.5498337 6.31609047 43.7447747 6.49153743 44.1151628 6.80344313 44.5440331 7.0178783 45.0118917 7.15433704 45.5187384 7.17383115 46.0255852 7.11534883 46.4739496 6.97889009 46.8833259 6.7059726 47.2342198 6.37457279 47.5266314 5.98469066 47.7410665 5.51683211 47.8385371 5.06846766 47.8775253 4.81504428 47.8385371 4.56162089 47.8385371 4.32769162 47.7410665 3.87932717 47.5266314 3.45045683 47.3901726 3.25551577 47.0782669 2.90462185 46.6688907 2.63170436 46.2595145 2.4367633 45.81115 2.31979866 45.3627856 2.30030455 44.9144211 2.35878687 44.4660567 2.49524562 44.0566804 2.748669 43.6862924 3.02158649 43.3938808 3.39197451 43.1989398 3.82084485 43.0819751 4.05477413 43.0429869 4.2692093 43.0429869 4.48364447"></polygon>
                        <polygon id="Path" fill="#FFFFFF" fill-rule="nonzero" points="47.5266314 19.9034826 47.5266314 10.5268174 47.4291608 10.078453 47.3316903 9.66907677 47.2342198 9.41565339 47.0782669 9.1427359 46.8833259 8.92830073 46.6688907 8.71386556 46.4739496 8.57740681 46.181538 8.46044217 45.6162089 8.32398343 45.0118917 8.36297164 44.4660567 8.5384186 44.1931392 8.69437145 43.9981981 8.88931251 43.8032571 9.1427359 43.6473042 9.41565339 43.4523631 10.078453 43.3353985 10.448841 43.3353985 10.819229 43.2964103 11.365064 43.2964103 19.9034826 43.3353985 20.3518471 43.3353985 20.7807174 43.5498337 21.6384581 43.6473042 21.8918815 43.8032571 22.164799 43.9981981 22.4182223 44.1931392 22.6326575 44.5050449 22.7691163 44.7584683 22.905575 45.0508799 22.9835514 45.4212679 22.9835514 45.7136795 22.9835514 46.0060911 22.905575 46.3179968 22.8081045 46.6104084 22.6326575 46.8248435 22.4572106 47.0197846 22.2427754 47.1757375 21.989352 47.4291608 21.3265524 47.4681491 20.897682 47.5266314 20.4883058"></polygon>
                        <polygon id="Path" fill="#FFFFFF" fill-rule="nonzero" points="36.9413316 5.38037336 36.9413316 20.3518471 36.9998139 20.7807174 37.0388021 21.2095878 37.194755 21.6384581 37.2922255 21.9113756 37.4286843 22.164799 37.5846371 22.4182223 37.8575546 22.6326575 38.0914839 22.7691163 38.4033896 22.8860809 38.6958012 22.9835514 39.0077069 22.9835514 39.3196126 22.9835514 39.6705065 22.905575 39.9629181 22.8081045 40.2163415 22.6326575 40.4697649 22.4572106 40.6257177 22.2427754 40.7816706 21.989352 40.9181293 21.7359286 41.0155998 21.3265524 41.1325645 20.897682 41.1715527 20.4883058 41.1715527 4.95150302 41.1325645 4.50313858 40.9181293 3.664892 40.8206588 3.37248041 40.6647059 3.11905702 40.4697649 2.88512775 40.2748238 2.67069258 40.0214004 2.49524562 39.7094947 2.39777509 39.4170831 2.31979866 39.1051774 2.30030455 38.8127658 2.30030455 38.4618719 2.35878687 38.1499662 2.47575151 37.8965428 2.63170436 37.6431194 2.84613953 37.4871666 3.0605747 37.3507078 3.29450398 37.194755 3.56742147 36.9998139 4.40566804 36.9413316 4.85403249"></polygon>
                        <polygon id="Path" fill="#FFFFFF" fill-rule="nonzero" points="30.8396763 5.38037336 30.8396763 19.9034826 30.8786645 20.3518471 30.8786645 20.7807174 31.0930997 21.6384581 31.1905702 21.9113756 31.3465231 22.164799 31.5414641 22.4182223 31.7364052 22.6326575 32.0288168 22.7691163 32.3017343 22.8860809 32.5941459 22.9835514 32.9450398 22.9835514 33.2569455 22.9835514 33.5493571 22.905575 33.8612628 22.8081045 34.1536744 22.6326575 34.3681096 22.4572106 34.5630506 22.2427754 34.7190035 21.989352 34.816474 21.7359286 34.9334386 21.3265524 35.0309092 20.897682 35.0698974 20.4883058 35.0698974 4.50313858 34.8749563 3.664892 34.7579917 3.37248041 34.6215329 3.11905702 34.4265919 2.88512775 34.2121567 2.67069258 33.900251 2.49524562 33.6663217 2.39777509 33.354416 2.31979866 33.0620044 2.30030455 32.6916164 2.30030455 32.3992048 2.35878687 32.0872991 2.47575151 31.7948875 2.63170436 31.5999465 2.84613953 31.4050054 3.0605747 31.2295584 3.29450398 31.151582 3.56742147 30.9761351 3.99629181 30.9371468 4.40566804 30.8396763 5.30239694"></polygon>
                        <polygon id="Path" fill="#FFFFFF" fill-rule="nonzero" points="14.6985562 15.6342733 14.6985562 16.5504963 14.7375444 16.9793667 14.9324855 17.8760956 15.0494501 18.3049659 15.1859089 18.7143421 15.400344 19.1432125 15.5952851 19.5525887 15.7902262 19.9229767 16.0436496 20.2933648 16.3555553 20.6637528 16.6479669 21.0146467 16.9598726 21.3265524 17.6226722 21.9113756 18.0320484 22.1842931 18.4219305 22.4182223 19.2796712 22.8081045 20.1958942 23.081022 21.1511054 23.2369748 22.1063166 23.275963 23.0225396 23.1784925 23.9777509 22.9640573 24.8354915 22.6326575 25.6932322 22.164799 26.1026085 21.8918815 26.4340083 21.5994699 26.8043963 21.2875642 27.0968079 20.9561644 27.4477018 20.5857763 27.7011252 20.2153883 28.2079719 19.3966359 28.402913 18.9677655 28.5588659 18.5388952 28.7148187 18.0710366 28.9097598 17.1548136 28.9682421 16.667461 29.0657126 15.7317439 29.0657126 15.2443912 28.9682421 14.3476623 28.773301 13.4119452 28.4613953 12.5347104 28.0715132 11.6769697 27.8180898 11.2870876 27.5646664 10.8972055 27.2527607 10.5268174 26.6484434 9.84452373 25.829691 9.22071232 25.4398088 8.96728894 24.9719503 8.75285377 24.0752214 8.36297164 23.1005161 8.14853647 22.1063166 8.01207773 21.1511054 8.05106594 20.1374119 8.2265129 19.1822007 8.5384186 18.32446 8.96728894 17.8566015 9.22071232 17.4667193 9.51312392 17.1158254 9.84452373 16.7649315 10.1759235 16.3945435 10.5463116 16.1021319 10.9361937 15.7902262 11.365064 15.5562969 11.7744403 15.3418617 12.2228047 15.1469207 12.6906633 14.9909678 13.1585218 14.7960267 14.1332271 14.6985562 15.1274266"></polygon>
                        <polygon id="Path" fill="#000000" fill-rule="nonzero" points="19.0847302 15.5952851 19.0847302 16.1411201 19.1822007 16.7064492 19.3186594 17.23279 19.5330946 17.7591309 19.6890475 18.0515425 19.8839885 18.3049659 20.1374119 18.5388952 20.3908353 18.7533303 20.702741 18.9287773 20.9951526 19.065236 21.7164345 19.1822007 22.35974 19.1432125 22.6521516 19.065236 23.0225396 18.9287773 23.275963 18.7533303 23.5683746 18.5388952 23.7633157 18.3049659 24.1726919 17.778625 24.2896566 17.4862134 24.4261153 17.1938018 24.5235858 16.9013902 24.6210564 16.2775788 24.6210564 15.9656731 24.6795387 15.6732615 24.6795387 15.3418617 24.6210564 15.029956 24.5820682 14.6985562 24.5235858 14.3866505 24.4261153 14.0747448 24.2896566 13.8018273 24.1726919 13.5094157 24.0167391 13.2364982 23.821798 12.9830749 23.6268569 12.7686397 23.3734336 12.5347104 23.081022 12.3787576 22.8081045 12.2422988 22.5156929 12.1448283 21.8528933 12.0473577 21.248576 12.1253342 20.9561644 12.2228047 20.6442587 12.3592635 20.3908353 12.5347104 19.8839885 12.9635807 19.7280357 13.2364982 19.5330946 13.4899216 19.4356241 13.7628391 19.2796712 14.0747448 19.240683 14.3476623 19.1237184 14.659568 19.0847302 14.9714737"></polygon>
                        <polygon id="Path" fill="#FFFFFF" fill-rule="nonzero" points="8.47993628 15.0884383 8.47993628 15.6147792 8.44094807 16.121626 8.44094807 16.667461 8.34347753 17.1938018 8.28499522 17.583684 8.18752468 17.9930602 8.03157183 18.3049659 7.9341013 18.4414246 7.77814845 18.5778834 7.6416897 18.7143421 7.42725453 18.7923186 7.13484294 18.8313068 6.82293724 18.8313068 6.51103153 18.7533303 5.8092437 18.4024364 5.45834979 18.1880013 5.00998534 17.9930602 4.65909143 17.8760956 4.30819751 17.8176132 3.89882128 17.8566015 3.54792736 17.954072 3.19703345 18.1295189 2.88512775 18.3634482 2.63170436 18.6558598 2.47575151 18.9677655 2.28081045 19.5525887 2.28081045 20.4103294 2.37828098 20.702741 2.47575151 20.9756585 2.63170436 21.248576 2.94361006 21.6774463 3.33349219 22.0673284 3.74286843 22.3987282 4.19123287 22.6716457 4.73706785 22.8860809 5.30239694 23.0420338 5.86772602 23.1784925 6.413561 23.2564689 7.58320739 23.275963 8.73335966 23.1200102 9.29868875 22.9835514 9.84452373 22.7691163 10.3708646 22.4961988 10.7997349 22.164799 11.2091112 21.7749168 11.5989933 21.3265524 11.910899 20.8586938 12.1643224 20.3518471 12.4762281 19.41613 12.6321809 18.9287773 12.6711692 18.4414246 12.7686397 17.954072 12.827122 17.4667193 12.827122 4.8930207 12.7296515 4.2692093 12.6711692 3.87932717 12.5152163 3.48944504 12.4372399 3.21652755 12.2617929 3.02158649 12.1253342 2.80715132 11.9693813 2.67069258 11.7744403 2.49524562 11.365064 2.30030455 10.8582173 2.20283402 10.6047939 2.20283402 10.3123823 2.22232813 9.80553551 2.37828098 9.53261802 2.49524562 9.33767696 2.67069258 9.1427359 2.88512775 8.92830073 3.09956292 8.73335966 3.60640968 8.5384186 4.36667983 8.47993628 4.75656196"></polygon>
                    </g>
                </g>
            </g>
        </g>
    </g>
</svg>